<svg width="64" height="64" viewBox="0 0 64 64" fill="none" xmlns="http://www.w3.org/2000/svg">
<g clip-path="url(#clip0)">
<path d="M62.7707 23.1881C58.944 9.80025 46.6167 0 32 0C14.3269 0 0 14.327 0 32C0 46.6167 9.80025 58.944 23.1881 62.7707L62.7707 23.1881Z" fill="#98E0E4"/>
<path d="M64 31.9999C64 28.9435 63.5709 25.9875 62.7708 23.188L48.6261 9.04337L47.0261 10.226L43.0609 6.26074L15.3739 54.9564L23.1882 62.7706C25.9876 63.5707 28.9436 63.9999 32 63.9999C49.6731 63.9999 64 49.6729 64 31.9999Z" fill="#75BFCA"/>
<path d="M32 6.26074L34.1067 17.3911H20.9391V6.26074H32Z" fill="#E5F7F8"/>
<path d="M43.0609 6.26074H32V17.3911H43.0609V6.26074Z" fill="#75BFCA"/>
<path d="M32 9.04395L35.1667 45.0787L15.3739 42.2961V9.04395H32Z" fill="white"/>
<path d="M48.6261 9.04395V42.2961L32 45.0787V9.04395H48.6261Z" fill="#E5F7F8"/>
<path d="M48.6262 42.2959V54.9568H38.4697L29.2174 48.6264L32 42.2959H48.6262Z" fill="#C62D54"/>
<path d="M32 42.2959V48.6264L25.5304 54.9568H15.3739V42.2959H32Z" fill="#FF7094"/>
<path d="M28.313 19.2H25.5304L24.1392 15.513L25.5304 11.8262H28.313L29.7044 15.513L28.313 19.2Z" fill="#E5F7F8"/>
<path d="M25.5304 11.8262H18.1565V19.2H25.5304V11.8262Z" fill="#98E0E4"/>
<path d="M38.4697 19.2H35.687L34.2957 15.513L35.687 11.8262H38.4697L39.8609 15.513L38.4697 19.2Z" fill="#98E0E4"/>
<path d="M32 11.8262L30.4066 15.513L32 19.2H35.687V11.8262H32Z" fill="#75BFCA"/>
<path d="M32 11.8262H28.313V19.2H32V11.8262Z" fill="#98E0E4"/>
<path d="M45.8435 11.8262H38.4696V19.2H45.8435V11.8262Z" fill="#75BFCA"/>
<path d="M28.313 29.3563H25.5304L24.1392 25.6694L25.5304 21.9824H28.313L29.7044 25.6694L28.313 29.3563Z" fill="#E5F7F8"/>
<path d="M25.5304 21.9824H18.1565V29.3563H25.5304V21.9824Z" fill="#98E0E4"/>
<path d="M38.4697 29.3563H35.687L34.2957 25.6694L35.687 21.9824H38.4697L39.8609 25.6694L38.4697 29.3563Z" fill="#98E0E4"/>
<path d="M32 21.9824L30.4066 25.6694L32 29.3563H35.687V21.9824H32Z" fill="#75BFCA"/>
<path d="M32 21.9824H28.313V29.3563H32V21.9824Z" fill="#98E0E4"/>
<path d="M45.8435 21.9824H38.4696V29.3563H45.8435V21.9824Z" fill="#75BFCA"/>
<path d="M28.313 39.5125H25.5304L24.1392 35.8257L25.5304 32.1387H28.313L29.7044 35.8257L28.313 39.5125Z" fill="#E5F7F8"/>
<path d="M25.5304 32.1387H18.1565V39.5125H25.5304V32.1387Z" fill="#98E0E4"/>
<path d="M38.4697 39.5125H35.687L34.2957 35.8257L35.687 32.1387H38.4697L39.8609 35.8257L38.4697 39.5125Z" fill="#98E0E4"/>
<path d="M32 32.1387L30.4066 35.8257L32 39.5125H35.687V32.1387H32Z" fill="#75BFCA"/>
<path d="M32 32.1387H28.313V39.5125H32V32.1387Z" fill="#98E0E4"/>
<path d="M38.4697 45.0781H35.687L32.9044 50.0173L35.687 54.9564H38.4697V45.0781Z" fill="#E5F7F8"/>
<path d="M32 45.0781L30.4066 50.0173L32 54.9564H35.687V45.0781H32Z" fill="#7DDCD4"/>
<path d="M28.313 45.0781H25.5304V54.9564H28.313L31.0956 50.0173L28.313 45.0781Z" fill="#E5F7F8"/>
<path d="M32 45.0781H28.313V54.9564H32V45.0781Z" fill="#98E0E4"/>
<path d="M45.8435 32.1387H38.4696V39.5125H45.8435V32.1387Z" fill="#75BFCA"/>
</g>
<defs>
<clipPath id="clip0">
<rect width="64" height="64" fill="white"/>
</clipPath>
</defs>
</svg>
