<svg width="120" height="120" viewBox="0 0 120 120" fill="none" xmlns="http://www.w3.org/2000/svg">
<path d="M120 60.0005C120 93.1373 93.1373 120 60.0005 120C26.8627 120 0 93.1373 0 60.0005C0 26.8627 26.8627 0 60.0005 0C93.1373 0 120 26.8627 120 60.0005Z" fill="#EAF5F7"/>
<path d="M70.9682 105.37V112.224C64.9806 115.624 58.3484 118.019 51.3034 119.187C51.2686 119.192 51.2366 119.197 51.2027 119.202C40.5175 117.448 30.7853 112.873 22.7946 106.263C19.3833 103.444 16.2897 100.256 13.5742 96.7564C16.2165 90.4557 21.6703 85.6207 28.3683 83.8309C28.7162 83.7375 29.066 83.6523 29.4212 83.5764C30.3669 83.3704 31.3365 83.2285 32.3234 83.1479C32.9259 83.0984 33.5329 83.0737 34.1481 83.0737H48.6676C50.2917 83.0737 51.8738 83.2459 53.3972 83.5764C53.4851 83.5938 53.573 83.613 53.6591 83.6322C53.9163 83.6917 54.1736 83.7549 54.4254 83.8236C54.4327 83.8263 54.4382 83.8263 54.4455 83.8281C56.955 84.4992 59.2914 85.5988 61.3688 87.0417C67.1705 91.0673 70.9682 97.7754 70.9682 105.37Z" fill="#C62D54"/>
<path d="M70.9675 105.37V119.174C67.7256 119.718 64.3977 120 61.0001 120C46.4825 120 33.1706 114.845 22.7939 106.263V105.37C22.7939 95.0544 29.7978 86.3751 39.312 83.8309C39.6599 83.7375 40.0106 83.6523 40.3658 83.5764C41.3106 83.3704 42.2802 83.2285 43.2671 83.1479C43.8695 83.0984 44.4775 83.0737 45.0918 83.0737H48.6669C50.2911 83.0737 51.8731 83.2459 53.3966 83.5764C53.4845 83.5938 53.5724 83.613 53.6584 83.6322C53.9157 83.6917 54.173 83.7549 54.4247 83.8236C54.4321 83.8263 54.4376 83.8263 54.4449 83.8281C56.9544 84.4992 59.2908 85.5988 61.3682 87.0417C67.1699 91.0673 70.9675 97.7754 70.9675 105.37Z" fill="#FF7094"/>
<path d="M54.4987 83.5764L54.4456 83.8282L47.0225 118.359C42.7735 117.348 38.7012 115.883 34.8587 114.017L28.3685 83.8309L28.3145 83.5764H54.4987Z" fill="#EAF5F7"/>
<path d="M41.4057 92.2017L31.3678 97.781L28.3145 83.5764L34.5511 79.9033" fill="#75BFCA"/>
<path d="M41.4053 92.2017L51.4441 97.781L54.4974 83.5764L48.2599 79.9033" fill="#75BFCA"/>
<path d="M11.4346 77.6985V44.071C11.4346 40.6542 12.0049 37.307 13.1292 34.1209C17.337 22.1448 28.7025 14.0955 41.4073 14.0955C42.9811 14.0955 44.5513 14.2181 46.0775 14.4589C53.0584 15.5493 59.4617 19.1126 64.1053 24.4914C68.7983 29.9278 71.3828 36.8813 71.3828 44.071V77.6985" fill="#3D4159"/>
<path d="M23.764 45.384C23.764 57.2786 30.7294 71.04 34.5545 77.6987H11.4336V44.0721C11.4336 40.6553 12.004 37.3081 13.1282 34.1211C17.3113 22.2146 28.5715 14.189 41.1885 14.0984C31.9736 14.3291 23.764 29.1132 23.764 45.384Z" fill="#2A2F4F"/>
<path d="M49.3642 74.4841V84.2474C49.3642 87.8216 47.0076 90.8429 43.7611 91.8463C43.0186 92.0761 42.2267 92.2016 41.4073 92.2016C37.0146 92.2016 33.4531 88.641 33.4531 84.2474V74.4841H49.3642Z" fill="#EAB599"/>
<path d="M49.3639 83.6294V84.2474C49.3639 87.8216 47.0073 90.8429 43.7608 91.8463C40.832 90.9454 38.6301 88.3993 38.2236 85.2828C38.7546 85.3158 39.2893 85.3323 39.8258 85.3323C41.331 85.3323 42.8068 85.2124 44.2442 84.9771C46.0148 84.6923 47.726 84.2364 49.3639 83.6294Z" fill="#F6CAAE"/>
<path d="M19.5859 58.4844C19.5859 62.1666 16.8952 65.2209 13.3722 65.7876C12.9877 65.8498 12.5912 65.8819 12.1875 65.8819C8.10055 65.8819 4.78906 62.5713 4.78906 58.4844C4.78906 54.3974 8.10055 51.0859 12.1875 51.0859C12.5912 51.0859 12.9877 51.1189 13.3722 51.1812C16.8952 51.7479 19.5859 54.8012 19.5859 58.4844Z" fill="#F6CAAE"/>
<path d="M19.5868 58.4844C19.5868 62.1666 16.896 65.2209 13.3731 65.7876C12.7331 63.4603 12.3916 61.0112 12.3916 58.4844C12.3916 55.9566 12.7331 53.5075 13.3731 51.1812C16.896 51.7479 19.5868 54.8012 19.5868 58.4844Z" fill="#EAB599"/>
<path d="M14.8321 58.4844C14.8321 59.9447 13.6483 61.1285 12.188 61.1285C10.7277 61.1285 9.54395 59.9447 9.54395 58.4844C9.54395 57.0241 10.7277 55.8403 12.188 55.8403C13.6483 55.8403 14.8321 57.0241 14.8321 58.4844Z" fill="#EAB599"/>
<path d="M60.4048 49.0378V74.4686C56.4735 78.2196 51.4335 80.8188 45.8259 81.7224C45.7819 81.7297 45.7352 81.7371 45.6913 81.7444C44.2978 81.9669 42.8669 82.0767 41.4075 82.0767C26.2069 82.0767 13.8838 69.7536 13.8838 54.553V44.0711C13.8838 42.7298 13.979 41.4096 14.1649 40.1187C20.7137 44.8282 30.1034 44.3631 36.0864 38.7079C38.0676 36.8374 39.4437 34.6081 40.2219 32.2451C40.6558 36.3842 42.5492 40.4126 45.9037 43.584C49.8982 47.3551 55.1762 49.1752 60.4048 49.0378Z" fill="#EAB599"/>
<path d="M60.4049 49.0378V74.4686C56.4736 78.2196 51.4336 80.8188 45.8259 81.7224C45.782 81.7297 45.7353 81.7371 45.6913 81.7444C32.525 79.6872 22.4551 68.2943 22.4551 54.553V44.0711C22.4551 43.7918 22.4597 43.5153 22.4697 43.2389C27.3239 43.736 32.3639 42.2272 36.0865 38.7079C38.0677 36.8374 39.4437 34.6081 40.2219 32.2451C40.6559 36.3842 42.5492 40.4126 45.9037 43.584C49.8982 47.3551 55.1763 49.1752 60.4049 49.0378Z" fill="#F6CAAE"/>
<path d="M41.4104 70.5584C39.105 70.5584 36.8006 69.9807 34.6995 68.8253C34.1071 68.5003 33.8902 67.756 34.2161 67.1627C34.542 66.5704 35.2863 66.3543 35.8796 66.6793C39.3422 68.5836 43.4776 68.5836 46.9411 66.6793C47.5334 66.3543 48.2778 66.5704 48.6037 67.1627C48.9296 67.756 48.7136 68.5003 48.1203 68.8253C46.0201 69.9807 43.7148 70.5584 41.4104 70.5584Z" fill="#EAB599"/>
<path d="M66.3896 103.856V111.249C66.3896 112.513 67.1706 113.594 68.2756 114.037C68.6217 114.178 68.9989 114.254 69.3953 114.254C71.0543 114.254 72.4001 112.908 72.4001 111.249V103.856C72.4001 102.196 71.0543 100.851 69.3953 100.851C68.9989 100.851 68.6217 100.927 68.2756 101.067C67.8957 101.219 67.5542 101.446 67.2704 101.731C66.7266 102.275 66.3896 103.026 66.3896 103.856Z" fill="#EAB599"/>
<path d="M66.3896 103.856V116.938C66.3896 118.202 67.1706 113.594 68.2756 114.037C69.3807 113.594 70.1616 112.513 70.1616 111.249V103.856C70.1616 102.593 69.3807 101.511 68.2756 101.067C67.8957 101.219 67.5542 101.446 67.2704 101.731C66.7266 102.275 66.3896 103.026 66.3896 103.856Z" fill="#F6CAAE"/>
<path d="M78.8784 113.698V117.289C77.8402 117.615 76.7873 117.911 75.7244 118.178C75.2272 118.305 74.7274 118.423 74.2256 118.535C73.9418 118.599 73.6525 118.662 73.366 118.722C73.2799 118.738 73.1948 118.759 73.1069 118.775C72.0238 119.001 70.927 119.192 69.8201 119.356C68.6885 119.522 67.5422 119.657 66.3887 119.76V113.698C66.3887 111.975 67.0891 110.414 68.2179 109.283C68.8084 108.691 69.5189 108.218 70.3072 107.902C71.0277 107.613 71.8114 107.454 72.6335 107.454C76.0823 107.454 78.8784 110.251 78.8784 113.698Z" fill="#EAB599"/>
<path d="M74.2256 113.698V118.535C73.9418 118.599 73.6525 118.662 73.366 118.722C73.2799 118.738 73.1948 118.759 73.1069 118.775C72.0238 119.001 70.927 119.192 69.8201 119.355C68.6885 119.522 67.5422 119.657 66.3887 119.76V113.698C66.3887 111.974 67.0891 110.414 68.2179 109.283C68.8084 108.69 69.5189 108.218 70.3072 107.902C72.6042 108.825 74.2256 111.074 74.2256 113.698Z" fill="#F6CAAE"/>
</svg>
