<svg width="120" height="120" viewBox="0 0 120 120" fill="none" xmlns="http://www.w3.org/2000/svg">
<path d="M0 60C0 93.1375 26.8625 120 60 120C93.1375 120 120 93.1375 120 60C120 26.8625 93.1375 0 60 0C26.8625 0 0 26.8625 0 60Z" fill="#EAF5F7"/>
<path d="M48.0725 105.37V112.224C54.3668 115.795 61.3733 118.261 68.8229 119.355C78.8342 117.879 88.0426 113.931 95.8035 108.151C99.6021 105.323 103.055 102.054 106.087 98.4192C103.348 90.0632 95.8035 83.8824 86.7178 83.1473C86.1154 83.0988 85.5075 83.074 84.8932 83.074H70.3729C68.6563 83.074 66.9864 83.2654 65.3824 83.6325C55.4691 85.9003 48.0725 94.7726 48.0725 105.37Z" fill="#C62D54"/>
<path d="M48.0725 105.37V118.814C51.9278 119.591 55.914 120 59.9991 120C73.4198 120 85.8087 115.594 95.8035 108.151V105.37C95.8035 93.056 85.8188 83.074 73.5031 83.074H70.3729C58.0545 83.074 48.0725 93.056 48.0725 105.37Z" fill="#FF7094"/>
<path d="M99.4556 58.4839C99.4556 62.1671 102.146 65.2203 105.669 65.787C106.054 65.8502 106.45 65.8823 106.854 65.8823C110.941 65.8823 114.252 62.5708 114.252 58.4839C114.252 54.3979 110.941 51.0864 106.854 51.0864C106.45 51.0864 106.054 51.1185 105.669 51.1816C102.146 51.7484 99.4556 54.8016 99.4556 58.4839Z" fill="#F6CAAE"/>
<path d="M71.6473 91.1188L77.6331 100.719L83.6179 91.1188" fill="#C62D54"/>
<path d="M72.3688 118.721C75.7388 118.016 79.0054 117.026 82.1402 115.78L77.6321 98.2214L72.3688 118.721Z" fill="#C62D54"/>
<path d="M99.4556 58.4839C99.4556 62.1671 102.146 65.2203 105.669 65.787C106.308 63.4607 106.651 61.0117 106.651 58.4839C106.651 55.957 106.309 53.508 105.669 51.1816C102.146 51.7484 99.4556 54.8016 99.4556 58.4839Z" fill="#EAB599"/>
<path d="M104.21 58.4839C104.21 59.9451 105.394 61.1288 106.854 61.1288C108.314 61.1288 109.498 59.9451 109.498 58.4839C109.498 57.0236 108.314 55.8398 106.854 55.8398C105.394 55.8398 104.21 57.0236 104.21 58.4839Z" fill="#EAB599"/>
<path d="M77.634 92.2018L87.6727 97.7802L90.726 83.5767L84.4894 79.9026" fill="#75BFCA"/>
<path d="M77.634 92.2018L67.5961 97.7802L64.5428 83.5767L70.7803 79.9026" fill="#75BFCA"/>
<path d="M55.8115 58.4839C55.8115 62.1671 53.1207 65.2203 49.5978 65.787C49.2133 65.8502 48.8168 65.8823 48.4131 65.8823C44.3262 65.8823 41.0147 62.5708 41.0147 58.4839C41.0147 54.3979 44.3262 51.0864 48.4131 51.0864C48.8168 51.0864 49.2133 51.1185 49.5978 51.1816C53.1207 51.7484 55.8115 54.8016 55.8115 58.4839Z" fill="#F6CAAE"/>
<path d="M55.8115 58.4839C55.8115 62.1671 53.1207 65.2203 49.5978 65.787C48.9587 63.4607 48.6163 61.0117 48.6163 58.4839C48.6163 55.957 48.9578 53.508 49.5978 51.1816C53.1207 51.7484 55.8115 54.8016 55.8115 58.4839Z" fill="#EAB599"/>
<path d="M45.769 58.4839C45.769 59.9451 46.9528 61.1288 48.4131 61.1288C49.8734 61.1288 51.0571 59.9451 51.0571 58.4839C51.0571 57.0236 49.8734 55.8398 48.4131 55.8398C46.9528 55.8398 45.769 57.0236 45.769 58.4839Z" fill="#EAB599"/>
<path d="M50.1077 54.5517C50.1077 68.2498 60.1144 79.6124 73.2156 81.7227C74.653 81.958 76.1279 82.0779 77.6331 82.0779C92.8363 82.0779 105.159 69.7549 105.159 54.5517C105.159 47.3593 99.9042 36.5607 95.387 31.6571C90.3571 26.1969 85.643 27.0264 77.6331 27.0264C76.1279 27.0264 74.653 27.1454 73.2156 27.3816C60.1144 29.491 50.1077 40.8545 50.1077 54.5517Z" fill="#EAB599"/>
<path d="M69.678 74.4846V84.2477C69.678 87.822 72.0346 90.8423 75.2802 91.8457C76.0236 92.0764 76.8155 92.2018 77.634 92.2018C82.0276 92.2018 85.5881 88.6404 85.5881 84.2477V74.4846H69.678Z" fill="#EAB599"/>
<path d="M69.678 83.6288V84.2477C69.678 87.822 72.0346 90.8423 75.2802 91.8457C78.2089 90.9457 80.4117 88.3987 80.8182 85.2832C80.2863 85.3162 79.7525 85.3317 79.2151 85.3317C77.71 85.3317 76.235 85.2127 74.7977 84.9765C73.027 84.6918 71.3159 84.2368 69.678 83.6288Z" fill="#F6CAAE"/>
<path d="M50.1077 54.5517C50.1077 68.2498 60.1144 79.6124 73.2156 81.7227C86.3168 79.6124 96.3235 68.2498 96.3235 54.5517C96.3235 46.1179 92.5296 38.5684 86.5521 33.5184C82.8268 30.3671 78.2492 28.1918 73.2156 27.3816C61.0016 29.3472 51.4737 39.3594 50.2432 51.8079C50.1535 52.7106 50.1077 53.627 50.1077 54.5517Z" fill="#F6CAAE"/>
<path d="M77.6328 69.3338C79.9381 69.3338 82.2425 68.7561 84.3437 67.6008C84.936 67.2757 85.1521 66.5314 84.827 65.9382C84.5011 65.3458 83.7568 65.1297 83.1635 65.4548C79.701 67.3591 75.5656 67.3591 72.1021 65.4548C71.5098 65.1297 70.7655 65.3458 70.4395 65.9382C70.1136 66.5314 70.3297 67.2757 70.922 67.6008C73.0232 68.7561 75.3275 69.3338 77.6328 69.3338Z" fill="#EAB599"/>
<path d="M68.5703 104.637H56.5704V108.311H68.5703V104.637Z" fill="#C62D54"/>
<path d="M79.2435 19.163C70.9058 19.759 64.2105 26.4945 63.7857 34.9741L63.707 36.5653H58.9114L56.3269 53.7452L50.0693 51.8079L50.9097 34.9741C51.3538 26.0669 58.7201 19.087 67.6355 19.119L79.2435 19.163Z" fill="#2A2F4F"/>
<path d="M51.4407 12.5189C44.8004 19.1592 44.8004 29.9249 51.4407 36.5643C58.0801 43.2047 68.8458 43.2047 75.4861 36.5643L51.4407 12.5189Z" fill="#3D4159"/>
<path d="M75.4852 36.5643H96.3538L98.9383 53.7451L105.195 51.8079L104.355 34.9731C103.912 26.0678 96.5451 19.086 87.6297 19.119L57.4915 19.2325L53.5071 26.4047" fill="#3D4159"/>
<path d="M76.0226 19.163C84.3604 19.759 91.0556 26.4945 91.4804 34.9741L91.5591 36.5653H96.3547L98.9392 53.7452L105.197 51.8079L104.355 34.9741C103.912 26.0669 96.546 19.087 87.6306 19.119L76.0226 19.163Z" fill="#2A2F4F"/>
</svg>
