<svg width="64" height="64" viewBox="0 0 64 64" fill="none" xmlns="http://www.w3.org/2000/svg">
<g clip-path="url(#clip0)">
<path d="M105.694 -12.1318H31.1626V-22.5225L70.5376 -66.2725C76.3709 -72.887 80.3813 -78.2516 82.5688 -82.3662C84.8084 -86.5329 85.9282 -90.8298 85.9282 -95.2568C85.9282 -101.194 84.1313 -106.064 80.5376 -109.866C76.9438 -113.668 72.1522 -115.569 66.1626 -115.569C58.9751 -115.569 53.3761 -113.512 49.3657 -109.397C45.4074 -105.335 43.4282 -99.6579 43.4282 -92.3662H28.9751C28.9751 -102.835 32.3345 -111.299 39.0532 -117.757C45.8241 -124.215 54.8605 -127.444 66.1626 -127.444C76.7355 -127.444 85.0949 -124.658 91.2407 -119.085C97.3866 -113.564 100.459 -106.194 100.459 -96.9756C100.459 -85.7777 93.3241 -72.4443 79.0532 -56.9756L48.5845 -23.9287H105.694V-12.1318ZM192.334 -60.6475C192.334 -43.7204 189.444 -31.1423 183.663 -22.9131C177.881 -14.6839 168.845 -10.5693 156.553 -10.5693C144.418 -10.5693 135.433 -14.5798 129.6 -22.6006C123.767 -30.6735 120.746 -42.7048 120.538 -58.6943V-77.9912C120.538 -94.71 123.428 -107.132 129.209 -115.257C134.991 -123.382 144.053 -127.444 156.397 -127.444C168.637 -127.444 177.647 -123.512 183.428 -115.647C189.209 -107.835 192.178 -95.7516 192.334 -79.3975V-60.6475ZM177.881 -80.4131C177.881 -92.6527 176.163 -101.559 172.725 -107.132C169.288 -112.757 163.845 -115.569 156.397 -115.569C149.001 -115.569 143.611 -112.783 140.225 -107.21C136.84 -101.637 135.095 -93.0693 134.991 -81.5068V-58.3818C134.991 -46.0902 136.762 -37.0016 140.303 -31.1162C143.897 -25.2829 149.314 -22.3662 156.553 -22.3662C163.689 -22.3662 168.975 -25.1266 172.413 -30.6475C175.902 -36.1683 177.725 -44.8662 177.881 -56.7412V-80.4131ZM231.866 -76.0381H242.725C249.548 -76.1423 254.913 -77.9391 258.819 -81.4287C262.725 -84.9183 264.678 -89.6318 264.678 -95.5693C264.678 -108.903 258.038 -115.569 244.756 -115.569C238.506 -115.569 233.506 -113.772 229.756 -110.179C226.058 -106.637 224.209 -101.924 224.209 -96.0381H209.756C209.756 -105.049 213.038 -112.522 219.6 -118.46C226.215 -124.45 234.6 -127.444 244.756 -127.444C255.486 -127.444 263.897 -124.606 269.991 -118.929C276.084 -113.252 279.131 -105.361 279.131 -95.2568C279.131 -90.3089 277.517 -85.5173 274.288 -80.8818C271.111 -76.2464 266.762 -72.7829 261.241 -70.4912C267.491 -68.512 272.308 -65.2308 275.694 -60.6475C279.131 -56.0641 280.85 -50.4652 280.85 -43.8506C280.85 -33.6423 277.517 -25.5433 270.85 -19.5537C264.183 -13.5641 255.512 -10.5693 244.834 -10.5693C234.157 -10.5693 225.459 -13.46 218.741 -19.2412C212.074 -25.0225 208.741 -32.6527 208.741 -42.1318H223.272C223.272 -36.1423 225.225 -31.3506 229.131 -27.7568C233.038 -24.1631 238.272 -22.3662 244.834 -22.3662C251.814 -22.3662 257.152 -24.1891 260.85 -27.835C264.548 -31.4808 266.397 -36.7152 266.397 -43.5381C266.397 -50.1527 264.366 -55.2308 260.303 -58.7725C256.241 -62.3141 250.381 -64.137 242.725 -64.2412H231.866V-76.0381ZM372.022 -60.6475C372.022 -43.7204 369.131 -31.1423 363.35 -22.9131C357.569 -14.6839 348.532 -10.5693 336.241 -10.5693C324.105 -10.5693 315.121 -14.5798 309.288 -22.6006C303.454 -30.6735 300.433 -42.7048 300.225 -58.6943V-77.9912C300.225 -94.71 303.116 -107.132 308.897 -115.257C314.678 -123.382 323.741 -127.444 336.084 -127.444C348.324 -127.444 357.334 -123.512 363.116 -115.647C368.897 -107.835 371.866 -95.7516 372.022 -79.3975V-60.6475ZM357.569 -80.4131C357.569 -92.6527 355.85 -101.559 352.413 -107.132C348.975 -112.757 343.532 -115.569 336.084 -115.569C328.689 -115.569 323.298 -112.783 319.913 -107.21C316.527 -101.637 314.782 -93.0693 314.678 -81.5068V-58.3818C314.678 -46.0902 316.449 -37.0016 319.991 -31.1162C323.584 -25.2829 329.001 -22.3662 336.241 -22.3662C343.376 -22.3662 348.663 -25.1266 352.1 -30.6475C355.59 -36.1683 357.413 -44.8662 357.569 -56.7412V-80.4131ZM451.553 -50.335H467.334V-38.5381H451.553V-12.1318H437.022V-38.5381H385.225V-47.0537L436.163 -125.882H451.553V-50.335ZM401.631 -50.335H437.022V-106.116L435.303 -102.991L401.631 -50.335ZM551.709 -60.6475C551.709 -43.7204 548.819 -31.1423 543.038 -22.9131C537.256 -14.6839 528.22 -10.5693 515.928 -10.5693C503.793 -10.5693 494.808 -14.5798 488.975 -22.6006C483.142 -30.6735 480.121 -42.7048 479.913 -58.6943V-77.9912C479.913 -94.71 482.803 -107.132 488.584 -115.257C494.366 -123.382 503.428 -127.444 515.772 -127.444C528.012 -127.444 537.022 -123.512 542.803 -115.647C548.584 -107.835 551.553 -95.7516 551.709 -79.3975V-60.6475ZM537.256 -80.4131C537.256 -92.6527 535.538 -101.559 532.1 -107.132C528.663 -112.757 523.22 -115.569 515.772 -115.569C508.376 -115.569 502.986 -112.783 499.6 -107.21C496.215 -101.637 494.47 -93.0693 494.366 -81.5068V-58.3818C494.366 -46.0902 496.137 -37.0016 499.678 -31.1162C503.272 -25.2829 508.689 -22.3662 515.928 -22.3662C523.064 -22.3662 528.35 -25.1266 531.788 -30.6475C535.277 -36.1683 537.1 -44.8662 537.256 -56.7412V-80.4131ZM576.866 -69.1631L582.647 -125.882H640.928V-112.522H594.913L591.475 -81.5068C597.048 -84.7881 603.376 -86.4287 610.459 -86.4287C620.824 -86.4287 629.053 -82.9912 635.147 -76.1162C641.241 -69.2933 644.288 -60.0485 644.288 -48.3818C644.288 -36.6631 641.111 -27.4183 634.756 -20.6475C628.454 -13.9287 619.626 -10.5693 608.272 -10.5693C598.22 -10.5693 590.017 -13.3558 583.663 -18.9287C577.308 -24.5016 573.689 -32.21 572.803 -42.0537H586.475C587.361 -35.5433 589.678 -30.6214 593.428 -27.2881C597.178 -24.0068 602.126 -22.3662 608.272 -22.3662C614.991 -22.3662 620.251 -24.6579 624.053 -29.2412C627.907 -33.8245 629.834 -40.1527 629.834 -48.2256C629.834 -55.8298 627.751 -61.9235 623.584 -66.5068C619.47 -71.1423 613.975 -73.46 607.1 -73.46C600.798 -73.46 595.85 -72.0798 592.256 -69.3193L588.428 -66.1943L576.866 -69.1631ZM731.397 -60.6475C731.397 -43.7204 728.506 -31.1423 722.725 -22.9131C716.944 -14.6839 707.907 -10.5693 695.616 -10.5693C683.48 -10.5693 674.496 -14.5798 668.663 -22.6006C662.829 -30.6735 659.808 -42.7048 659.6 -58.6943V-77.9912C659.6 -94.71 662.491 -107.132 668.272 -115.257C674.053 -123.382 683.116 -127.444 695.459 -127.444C707.699 -127.444 716.709 -123.512 722.491 -115.647C728.272 -107.835 731.241 -95.7516 731.397 -79.3975V-60.6475ZM716.944 -80.4131C716.944 -92.6527 715.225 -101.559 711.788 -107.132C708.35 -112.757 702.907 -115.569 695.459 -115.569C688.064 -115.569 682.673 -112.783 679.288 -107.21C675.902 -101.637 674.157 -93.0693 674.053 -81.5068V-58.3818C674.053 -46.0902 675.824 -37.0016 679.366 -31.1162C682.959 -25.2829 688.376 -22.3662 695.616 -22.3662C702.751 -22.3662 708.038 -25.1266 711.475 -30.6475C714.965 -36.1683 716.788 -44.8662 716.944 -56.7412V-80.4131ZM87.8813 62.04V74.3057H85.2251C73.9751 74.514 65.0168 77.8473 58.3501 84.3057C51.6834 90.764 47.8293 99.8525 46.7876 111.571C52.7772 104.696 60.9543 101.259 71.3188 101.259C81.2147 101.259 89.1053 104.748 94.9907 111.728C100.928 118.707 103.897 127.717 103.897 138.759C103.897 150.478 100.694 159.853 94.2876 166.884C87.9334 173.915 79.3918 177.431 68.6626 177.431C57.7772 177.431 48.9491 173.264 42.1782 164.931C35.4074 156.545 32.022 145.764 32.022 132.587V127.04C32.022 106.103 36.4751 90.113 45.3813 79.0713C54.3397 67.9775 67.647 62.3005 85.3032 62.04H87.8813ZM68.897 113.29C63.9491 113.29 59.3918 114.774 55.2251 117.743C51.0584 120.712 48.1678 124.436 46.5532 128.915V134.228C46.5532 143.603 48.6626 151.155 52.8813 156.884C57.1001 162.613 62.3605 165.478 68.6626 165.478C75.173 165.478 80.2772 163.082 83.9751 158.29C87.7251 153.498 89.6001 147.222 89.6001 139.462C89.6001 131.649 87.6991 125.347 83.897 120.556C80.147 115.712 75.147 113.29 68.897 113.29ZM192.334 127.353C192.334 144.28 189.444 156.858 183.663 165.087C177.881 173.316 168.845 177.431 156.553 177.431C144.418 177.431 135.433 173.42 129.6 165.399C123.767 157.326 120.746 145.295 120.538 129.306V110.009C120.538 93.29 123.428 80.8682 129.209 72.7432C134.991 64.6182 144.053 60.5557 156.397 60.5557C168.637 60.5557 177.647 64.488 183.428 72.3525C189.209 80.165 192.178 92.2484 192.334 108.603V127.353ZM177.881 107.587C177.881 95.3473 176.163 86.4411 172.725 80.8682C169.288 75.2432 163.845 72.4307 156.397 72.4307C149.001 72.4307 143.611 75.2171 140.225 80.79C136.84 86.363 135.095 94.9307 134.991 106.493V129.618C134.991 141.91 136.762 150.998 140.303 156.884C143.897 162.717 149.314 165.634 156.553 165.634C163.689 165.634 168.975 162.873 172.413 157.353C175.902 151.832 177.725 143.134 177.881 131.259V107.587ZM284.288 70.2432L237.178 175.868H222.022L268.975 73.9932H207.413V62.1182H284.288V70.2432ZM372.022 127.353C372.022 144.28 369.131 156.858 363.35 165.087C357.569 173.316 348.532 177.431 336.241 177.431C324.105 177.431 315.121 173.42 309.288 165.399C303.454 157.326 300.433 145.295 300.225 129.306V110.009C300.225 93.29 303.116 80.8682 308.897 72.7432C314.678 64.6182 323.741 60.5557 336.084 60.5557C348.324 60.5557 357.334 64.488 363.116 72.3525C368.897 80.165 371.866 92.2484 372.022 108.603V127.353ZM357.569 107.587C357.569 95.3473 355.85 86.4411 352.413 80.8682C348.975 75.2432 343.532 72.4307 336.084 72.4307C328.689 72.4307 323.298 75.2171 319.913 80.79C316.527 86.363 314.782 94.9307 314.678 106.493V129.618C314.678 141.91 316.449 150.998 319.991 156.884C323.584 162.717 329.001 165.634 336.241 165.634C343.376 165.634 348.663 162.873 352.1 157.353C355.59 151.832 357.413 143.134 357.569 131.259V107.587ZM459.522 91.8057C459.522 97.4827 458.012 102.535 454.991 106.962C452.022 111.389 447.986 114.853 442.881 117.353C448.819 119.905 453.506 123.629 456.944 128.524C460.433 133.42 462.178 138.967 462.178 145.165C462.178 155.009 458.845 162.847 452.178 168.681C445.564 174.514 436.84 177.431 426.006 177.431C415.069 177.431 406.293 174.514 399.678 168.681C393.116 162.795 389.834 154.957 389.834 145.165C389.834 139.019 391.501 133.472 394.834 128.524C398.22 123.576 402.881 119.826 408.819 117.274C403.767 114.774 399.782 111.311 396.866 106.884C393.949 102.457 392.491 97.4307 392.491 91.8057C392.491 82.2223 395.564 74.6182 401.709 68.9932C407.855 63.3682 415.954 60.5557 426.006 60.5557C436.006 60.5557 444.079 63.3682 450.225 68.9932C456.423 74.6182 459.522 82.2223 459.522 91.8057ZM447.725 144.853C447.725 138.498 445.694 133.316 441.631 129.306C437.621 125.295 432.361 123.29 425.85 123.29C419.34 123.29 414.105 125.269 410.147 129.228C406.241 133.186 404.288 138.394 404.288 144.853C404.288 151.311 406.189 156.389 409.991 160.087C413.845 163.785 419.183 165.634 426.006 165.634C432.777 165.634 438.09 163.785 441.944 160.087C445.798 156.337 447.725 151.259 447.725 144.853ZM426.006 72.4307C420.329 72.4307 415.72 74.2015 412.178 77.7432C408.689 81.2327 406.944 85.9984 406.944 92.04C406.944 97.8213 408.663 102.509 412.1 106.103C415.59 109.644 420.225 111.415 426.006 111.415C431.788 111.415 436.397 109.644 439.834 106.103C443.324 102.509 445.069 97.8213 445.069 92.04C445.069 86.2588 443.272 81.5452 439.678 77.8994C436.084 74.2536 431.527 72.4307 426.006 72.4307ZM551.709 127.353C551.709 144.28 548.819 156.858 543.038 165.087C537.256 173.316 528.22 177.431 515.928 177.431C503.793 177.431 494.808 173.42 488.975 165.399C483.142 157.326 480.121 145.295 479.913 129.306V110.009C479.913 93.29 482.803 80.8682 488.584 72.7432C494.366 64.6182 503.428 60.5557 515.772 60.5557C528.012 60.5557 537.022 64.488 542.803 72.3525C548.584 80.165 551.553 92.2484 551.709 108.603V127.353ZM537.256 107.587C537.256 95.3473 535.538 86.4411 532.1 80.8682C528.663 75.2432 523.22 72.4307 515.772 72.4307C508.376 72.4307 502.986 75.2171 499.6 80.79C496.215 86.363 494.47 94.9307 494.366 106.493V129.618C494.366 141.91 496.137 150.998 499.678 156.884C503.272 162.717 508.689 165.634 515.928 165.634C523.064 165.634 528.35 162.873 531.788 157.353C535.277 151.832 537.1 143.134 537.256 131.259V107.587ZM625.616 125.868C622.595 129.462 618.975 132.353 614.756 134.54C610.59 136.728 606.006 137.821 601.006 137.821C594.444 137.821 588.715 136.207 583.819 132.978C578.975 129.748 575.225 125.217 572.569 119.384C569.913 113.498 568.584 107.014 568.584 99.9307C568.584 92.3265 570.017 85.4775 572.881 79.3838C575.798 73.29 579.913 68.6286 585.225 65.3994C590.538 62.1702 596.736 60.5557 603.819 60.5557C615.069 60.5557 623.923 64.7744 630.381 73.2119C636.892 81.5973 640.147 93.0557 640.147 107.587V111.806C640.147 133.941 635.772 150.113 627.022 160.321C618.272 170.478 605.069 175.686 587.413 175.946H584.6V163.759H587.647C599.574 163.55 608.741 160.451 615.147 154.462C621.553 148.42 625.043 138.889 625.616 125.868ZM603.35 125.868C608.194 125.868 612.647 124.384 616.709 121.415C620.824 118.446 623.819 114.774 625.694 110.399V104.618C625.694 95.139 623.637 87.4307 619.522 81.4932C615.407 75.5557 610.199 72.5869 603.897 72.5869C597.543 72.5869 592.439 75.0348 588.584 79.9307C584.73 84.7744 582.803 91.1807 582.803 99.1494C582.803 106.91 584.652 113.316 588.35 118.368C592.1 123.368 597.1 125.868 603.35 125.868ZM731.397 127.353C731.397 144.28 728.506 156.858 722.725 165.087C716.944 173.316 707.907 177.431 695.616 177.431C683.48 177.431 674.496 173.42 668.663 165.399C662.829 157.326 659.808 145.295 659.6 129.306V110.009C659.6 93.29 662.491 80.8682 668.272 72.7432C674.053 64.6182 683.116 60.5557 695.459 60.5557C707.699 60.5557 716.709 64.488 722.491 72.3525C728.272 80.165 731.241 92.2484 731.397 108.603V127.353ZM716.944 107.587C716.944 95.3473 715.225 86.4411 711.788 80.8682C708.35 75.2432 702.907 72.4307 695.459 72.4307C688.064 72.4307 682.673 75.2171 679.288 80.79C675.902 86.363 674.157 94.9307 674.053 106.493V129.618C674.053 141.91 675.824 150.998 679.366 156.884C682.959 162.717 688.376 165.634 695.616 165.634C702.751 165.634 708.038 162.873 711.475 157.353C714.965 151.832 716.788 143.134 716.944 131.259V107.587ZM78.6626 363.868H64.1313V267.54L34.9907 278.243V265.118L76.397 249.571H78.6626V363.868ZM192.334 315.353C192.334 332.28 189.444 344.858 183.663 353.087C177.881 361.316 168.845 365.431 156.553 365.431C144.418 365.431 135.433 361.42 129.6 353.399C123.767 345.326 120.746 333.295 120.538 317.306V298.009C120.538 281.29 123.428 268.868 129.209 260.743C134.991 252.618 144.053 248.556 156.397 248.556C168.637 248.556 177.647 252.488 183.428 260.353C189.209 268.165 192.178 280.248 192.334 296.603V315.353ZM177.881 295.587C177.881 283.347 176.163 274.441 172.725 268.868C169.288 263.243 163.845 260.431 156.397 260.431C149.001 260.431 143.611 263.217 140.225 268.79C136.84 274.363 135.095 282.931 134.991 294.493V317.618C134.991 329.91 136.762 338.998 140.303 344.884C143.897 350.717 149.314 353.634 156.553 353.634C163.689 353.634 168.975 350.873 172.413 345.353C175.902 339.832 177.725 331.134 177.881 319.259V295.587ZM282.178 315.353C282.178 332.28 279.288 344.858 273.506 353.087C267.725 361.316 258.689 365.431 246.397 365.431C234.262 365.431 225.277 361.42 219.444 353.399C213.611 345.326 210.59 333.295 210.381 317.306V298.009C210.381 281.29 213.272 268.868 219.053 260.743C224.834 252.618 233.897 248.556 246.241 248.556C258.48 248.556 267.491 252.488 273.272 260.353C279.053 268.165 282.022 280.248 282.178 296.603V315.353ZM267.725 295.587C267.725 283.347 266.006 274.441 262.569 268.868C259.131 263.243 253.689 260.431 246.241 260.431C238.845 260.431 233.454 263.217 230.069 268.79C226.683 274.363 224.939 282.931 224.834 294.493V317.618C224.834 329.91 226.605 338.998 230.147 344.884C233.741 350.717 239.157 353.634 246.397 353.634C253.532 353.634 258.819 350.873 262.256 345.353C265.746 339.832 267.569 331.134 267.725 319.259V295.587ZM348.194 363.868H333.663V267.54L304.522 278.243V265.118L345.928 249.571H348.194V363.868ZM438.038 363.868H423.506V267.54L394.366 278.243V265.118L435.772 249.571H438.038V363.868ZM551.709 315.353C551.709 332.28 548.819 344.858 543.038 353.087C537.256 361.316 528.22 365.431 515.928 365.431C503.793 365.431 494.808 361.42 488.975 353.399C483.142 345.326 480.121 333.295 479.913 317.306V298.009C479.913 281.29 482.803 268.868 488.584 260.743C494.366 252.618 503.428 248.556 515.772 248.556C528.012 248.556 537.022 252.488 542.803 260.353C548.584 268.165 551.553 280.248 551.709 296.603V315.353ZM537.256 295.587C537.256 283.347 535.538 274.441 532.1 268.868C528.663 263.243 523.22 260.431 515.772 260.431C508.376 260.431 502.986 263.217 499.6 268.79C496.215 274.363 494.47 282.931 494.366 294.493V317.618C494.366 329.91 496.137 338.998 499.678 344.884C503.272 350.717 508.689 353.634 515.928 353.634C523.064 353.634 528.35 350.873 531.788 345.353C535.277 339.832 537.1 331.134 537.256 319.259V295.587ZM617.725 363.868H603.194V267.54L574.053 278.243V265.118L615.459 249.571H617.725V363.868ZM734.6 363.868H660.069V353.478L699.444 309.728C705.277 303.113 709.288 297.748 711.475 293.634C713.715 289.467 714.834 285.17 714.834 280.743C714.834 274.806 713.038 269.936 709.444 266.134C705.85 262.332 701.058 260.431 695.069 260.431C687.881 260.431 682.282 262.488 678.272 266.603C674.314 270.665 672.334 276.342 672.334 283.634H657.881C657.881 273.165 661.241 264.701 667.959 258.243C674.73 251.785 683.767 248.556 695.069 248.556C705.642 248.556 714.001 251.342 720.147 256.915C726.293 262.436 729.366 269.806 729.366 279.024C729.366 290.222 722.23 303.556 707.959 319.024L677.491 352.071H734.6V363.868ZM102.491 503.353C102.491 520.28 99.6001 532.858 93.8188 541.087C88.0376 549.316 79.0011 553.431 66.7095 553.431C54.5741 553.431 45.5897 549.42 39.7563 541.399C33.923 533.326 30.9022 521.295 30.6938 505.306V486.009C30.6938 469.29 33.5845 456.868 39.3657 448.743C45.147 440.618 54.2095 436.556 66.5532 436.556C78.7928 436.556 87.8032 440.488 93.5845 448.353C99.3657 456.165 102.334 468.248 102.491 484.603V503.353ZM88.0376 483.587C88.0376 471.347 86.3188 462.441 82.8813 456.868C79.4438 451.243 74.0011 448.431 66.5532 448.431C59.1574 448.431 53.7668 451.217 50.3813 456.79C46.9959 462.363 45.2511 470.931 45.147 482.493V505.618C45.147 517.91 46.9178 526.998 50.4595 532.884C54.0532 538.717 59.4699 541.634 66.7095 541.634C73.8449 541.634 79.1313 538.873 82.5688 533.353C86.0584 527.832 87.8813 519.134 88.0376 507.259V483.587ZM168.506 551.868H153.975V455.54L124.834 466.243V453.118L166.241 437.571H168.506V551.868ZM231.866 487.962H242.725C249.548 487.858 254.913 486.061 258.819 482.571C262.725 479.082 264.678 474.368 264.678 468.431C264.678 455.097 258.038 448.431 244.756 448.431C238.506 448.431 233.506 450.228 229.756 453.821C226.058 457.363 224.209 462.076 224.209 467.962H209.756C209.756 458.951 213.038 451.478 219.6 445.54C226.215 439.55 234.6 436.556 244.756 436.556C255.486 436.556 263.897 439.394 269.991 445.071C276.084 450.748 279.131 458.639 279.131 468.743C279.131 473.691 277.517 478.483 274.288 483.118C271.111 487.754 266.762 491.217 261.241 493.509C267.491 495.488 272.308 498.769 275.694 503.353C279.131 507.936 280.85 513.535 280.85 520.149C280.85 530.358 277.517 538.457 270.85 544.446C264.183 550.436 255.512 553.431 244.834 553.431C234.157 553.431 225.459 550.54 218.741 544.759C212.074 538.978 208.741 531.347 208.741 521.868H223.272C223.272 527.858 225.225 532.649 229.131 536.243C233.038 539.837 238.272 541.634 244.834 541.634C251.814 541.634 257.152 539.811 260.85 536.165C264.548 532.519 266.397 527.285 266.397 520.462C266.397 513.847 264.366 508.769 260.303 505.228C256.241 501.686 250.381 499.863 242.725 499.759H231.866V487.962ZM372.022 503.353C372.022 520.28 369.131 532.858 363.35 541.087C357.569 549.316 348.532 553.431 336.241 553.431C324.105 553.431 315.121 549.42 309.288 541.399C303.454 533.326 300.433 521.295 300.225 505.306V486.009C300.225 469.29 303.116 456.868 308.897 448.743C314.678 440.618 323.741 436.556 336.084 436.556C348.324 436.556 357.334 440.488 363.116 448.353C368.897 456.165 371.866 468.248 372.022 484.603V503.353ZM357.569 483.587C357.569 471.347 355.85 462.441 352.413 456.868C348.975 451.243 343.532 448.431 336.084 448.431C328.689 448.431 323.298 451.217 319.913 456.79C316.527 462.363 314.782 470.931 314.678 482.493V505.618C314.678 517.91 316.449 526.998 319.991 532.884C323.584 538.717 329.001 541.634 336.241 541.634C343.376 541.634 348.663 538.873 352.1 533.353C355.59 527.832 357.413 519.134 357.569 507.259V483.587ZM438.038 551.868H423.506V455.54L394.366 466.243V453.118L435.772 437.571H438.038V551.868ZM541.397 513.665H557.178V525.462H541.397V551.868H526.866V525.462H475.069V516.946L526.006 438.118H541.397V513.665ZM491.475 513.665H526.866V457.884L525.147 461.009L491.475 513.665ZM641.553 503.353C641.553 520.28 638.663 532.858 632.881 541.087C627.1 549.316 618.064 553.431 605.772 553.431C593.637 553.431 584.652 549.42 578.819 541.399C572.986 533.326 569.965 521.295 569.756 505.306V486.009C569.756 469.29 572.647 456.868 578.428 448.743C584.209 440.618 593.272 436.556 605.616 436.556C617.855 436.556 626.866 440.488 632.647 448.353C638.428 456.165 641.397 468.248 641.553 484.603V503.353ZM627.1 483.587C627.1 471.347 625.381 462.441 621.944 456.868C618.506 451.243 613.064 448.431 605.616 448.431C598.22 448.431 592.829 451.217 589.444 456.79C586.058 462.363 584.314 470.931 584.209 482.493V505.618C584.209 517.91 585.98 526.998 589.522 532.884C593.116 538.717 598.532 541.634 605.772 541.634C612.907 541.634 618.194 538.873 621.631 533.353C625.121 527.832 626.944 519.134 627.1 507.259V483.587ZM707.569 551.868H693.038V455.54L663.897 466.243V453.118L705.303 437.571H707.569V551.868ZM37.8032 682.837L43.5845 626.118H101.866V639.478H55.8501L52.4126 670.493C57.9855 667.212 64.3136 665.571 71.397 665.571C81.7616 665.571 89.9907 669.009 96.0845 675.884C102.178 682.707 105.225 691.951 105.225 703.618C105.225 715.337 102.048 724.582 95.6938 731.353C89.3918 738.071 80.5636 741.431 69.2095 741.431C59.1574 741.431 50.9543 738.644 44.6001 733.071C38.2459 727.498 34.6261 719.79 33.7407 709.946H47.4126C48.298 716.457 50.6157 721.379 54.3657 724.712C58.1157 727.993 63.0636 729.634 69.2095 729.634C75.9282 729.634 81.1886 727.342 84.9907 722.759C88.8449 718.175 90.772 711.847 90.772 703.774C90.772 696.17 88.6886 690.076 84.522 685.493C80.4074 680.858 74.9126 678.54 68.0376 678.54C61.7355 678.54 56.7876 679.92 53.1938 682.681L49.3657 685.806L37.8032 682.837ZM192.334 691.353C192.334 708.28 189.444 720.858 183.663 729.087C177.881 737.316 168.845 741.431 156.553 741.431C144.418 741.431 135.433 737.42 129.6 729.399C123.767 721.326 120.746 709.295 120.538 693.306V674.009C120.538 657.29 123.428 644.868 129.209 636.743C134.991 628.618 144.053 624.556 156.397 624.556C168.637 624.556 177.647 628.488 183.428 636.353C189.209 644.165 192.178 656.248 192.334 672.603V691.353ZM177.881 671.587C177.881 659.347 176.163 650.441 172.725 644.868C169.288 639.243 163.845 636.431 156.397 636.431C149.001 636.431 143.611 639.217 140.225 644.79C136.84 650.363 135.095 658.931 134.991 670.493V693.618C134.991 705.91 136.762 714.998 140.303 720.884C143.897 726.717 149.314 729.634 156.553 729.634C163.689 729.634 168.975 726.873 172.413 721.353C175.902 715.832 177.725 707.134 177.881 695.259V671.587ZM258.35 739.868H243.819V643.54L214.678 654.243V641.118L256.084 625.571H258.35V739.868ZM357.413 626.04V638.306H354.756C343.506 638.514 334.548 641.847 327.881 648.306C321.215 654.764 317.361 663.853 316.319 675.571C322.308 668.696 330.486 665.259 340.85 665.259C350.746 665.259 358.637 668.748 364.522 675.728C370.459 682.707 373.428 691.717 373.428 702.759C373.428 714.478 370.225 723.853 363.819 730.884C357.465 737.915 348.923 741.431 338.194 741.431C327.308 741.431 318.48 737.264 311.709 728.931C304.939 720.545 301.553 709.764 301.553 696.587V691.04C301.553 670.103 306.006 654.113 314.913 643.071C323.871 631.978 337.178 626.3 354.834 626.04H357.413ZM338.428 677.29C333.48 677.29 328.923 678.774 324.756 681.743C320.59 684.712 317.699 688.436 316.084 692.915V698.228C316.084 707.603 318.194 715.155 322.413 720.884C326.631 726.613 331.892 729.478 338.194 729.478C344.704 729.478 349.808 727.082 353.506 722.29C357.256 717.498 359.131 711.222 359.131 703.462C359.131 695.649 357.23 689.347 353.428 684.556C349.678 679.712 344.678 677.29 338.428 677.29ZM461.866 691.353C461.866 708.28 458.975 720.858 453.194 729.087C447.413 737.316 438.376 741.431 426.084 741.431C413.949 741.431 404.965 737.42 399.131 729.399C393.298 721.326 390.277 709.295 390.069 693.306V674.009C390.069 657.29 392.959 644.868 398.741 636.743C404.522 628.618 413.584 624.556 425.928 624.556C438.168 624.556 447.178 628.488 452.959 636.353C458.741 644.165 461.709 656.248 461.866 672.603V691.353ZM447.413 671.587C447.413 659.347 445.694 650.441 442.256 644.868C438.819 639.243 433.376 636.431 425.928 636.431C418.532 636.431 413.142 639.217 409.756 644.79C406.371 650.363 404.626 658.931 404.522 670.493V693.618C404.522 705.91 406.293 714.998 409.834 720.884C413.428 726.717 418.845 729.634 426.084 729.634C433.22 729.634 438.506 726.873 441.944 721.353C445.433 715.832 447.256 707.134 447.413 695.259V671.587ZM527.881 739.868H513.35V643.54L484.209 654.243V641.118L525.616 625.571H527.881V739.868ZM643.663 634.243L596.553 739.868H581.397L628.35 637.993H566.788V626.118H643.663V634.243ZM731.397 691.353C731.397 708.28 728.506 720.858 722.725 729.087C716.944 737.316 707.907 741.431 695.616 741.431C683.48 741.431 674.496 737.42 668.663 729.399C662.829 721.326 659.808 709.295 659.6 693.306V674.009C659.6 657.29 662.491 644.868 668.272 636.743C674.053 628.618 683.116 624.556 695.459 624.556C707.699 624.556 716.709 628.488 722.491 636.353C728.272 644.165 731.241 656.248 731.397 672.603V691.353ZM716.944 671.587C716.944 659.347 715.225 650.441 711.788 644.868C708.35 639.243 702.907 636.431 695.459 636.431C688.064 636.431 682.673 639.217 679.288 644.79C675.902 650.363 674.157 658.931 674.053 670.493V693.618C674.053 705.91 675.824 714.998 679.366 720.884C682.959 726.717 688.376 729.634 695.616 729.634C702.751 729.634 708.038 726.873 711.475 721.353C714.965 715.832 716.788 707.134 716.944 695.259V671.587ZM78.6626 927.868H64.1313V831.54L34.9907 842.243V829.118L76.397 813.571H78.6626V927.868ZM189.991 843.806C189.991 849.483 188.48 854.535 185.459 858.962C182.491 863.389 178.454 866.853 173.35 869.353C179.288 871.905 183.975 875.629 187.413 880.524C190.902 885.42 192.647 890.967 192.647 897.165C192.647 907.009 189.314 914.847 182.647 920.681C176.032 926.514 167.308 929.431 156.475 929.431C145.538 929.431 136.762 926.514 130.147 920.681C123.584 914.795 120.303 906.957 120.303 897.165C120.303 891.019 121.97 885.472 125.303 880.524C128.689 875.576 133.35 871.826 139.288 869.274C134.236 866.774 130.251 863.311 127.334 858.884C124.418 854.457 122.959 849.431 122.959 843.806C122.959 834.222 126.032 826.618 132.178 820.993C138.324 815.368 146.423 812.556 156.475 812.556C166.475 812.556 174.548 815.368 180.694 820.993C186.892 826.618 189.991 834.222 189.991 843.806ZM178.194 896.853C178.194 890.498 176.163 885.316 172.1 881.306C168.09 877.295 162.829 875.29 156.319 875.29C149.808 875.29 144.574 877.269 140.616 881.228C136.709 885.186 134.756 890.394 134.756 896.853C134.756 903.311 136.657 908.389 140.459 912.087C144.314 915.785 149.652 917.634 156.475 917.634C163.246 917.634 168.558 915.785 172.413 912.087C176.267 908.337 178.194 903.259 178.194 896.853ZM156.475 824.431C150.798 824.431 146.189 826.201 142.647 829.743C139.157 833.233 137.413 837.998 137.413 844.04C137.413 849.821 139.131 854.509 142.569 858.103C146.058 861.644 150.694 863.415 156.475 863.415C162.256 863.415 166.866 861.644 170.303 858.103C173.793 854.509 175.538 849.821 175.538 844.04C175.538 838.259 173.741 833.545 170.147 829.899C166.553 826.254 161.996 824.431 156.475 824.431ZM282.178 879.353C282.178 896.28 279.288 908.858 273.506 917.087C267.725 925.316 258.689 929.431 246.397 929.431C234.262 929.431 225.277 925.42 219.444 917.399C213.611 909.326 210.59 897.295 210.381 881.306V862.009C210.381 845.29 213.272 832.868 219.053 824.743C224.834 816.618 233.897 812.556 246.241 812.556C258.48 812.556 267.491 816.488 273.272 824.353C279.053 832.165 282.022 844.248 282.178 860.603V879.353ZM267.725 859.587C267.725 847.347 266.006 838.441 262.569 832.868C259.131 827.243 253.689 824.431 246.241 824.431C238.845 824.431 233.454 827.217 230.069 832.79C226.683 838.363 224.939 846.931 224.834 858.493V881.618C224.834 893.91 226.605 902.998 230.147 908.884C233.741 914.717 239.157 917.634 246.397 917.634C253.532 917.634 258.819 914.873 262.256 909.353C265.746 903.832 267.569 895.134 267.725 883.259V859.587ZM348.194 927.868H333.663V831.54L304.522 842.243V829.118L345.928 813.571H348.194V927.868ZM445.928 877.868C442.907 881.462 439.288 884.353 435.069 886.54C430.902 888.728 426.319 889.821 421.319 889.821C414.756 889.821 409.027 888.207 404.131 884.978C399.288 881.748 395.538 877.217 392.881 871.384C390.225 865.498 388.897 859.014 388.897 851.931C388.897 844.326 390.329 837.478 393.194 831.384C396.111 825.29 400.225 820.629 405.538 817.399C410.85 814.17 417.048 812.556 424.131 812.556C435.381 812.556 444.236 816.774 450.694 825.212C457.204 833.597 460.459 845.056 460.459 859.587V863.806C460.459 885.941 456.084 902.113 447.334 912.321C438.584 922.478 425.381 927.686 407.725 927.946H404.913V915.759H407.959C419.887 915.55 429.053 912.451 435.459 906.462C441.866 900.42 445.355 890.889 445.928 877.868ZM423.663 877.868C428.506 877.868 432.959 876.384 437.022 873.415C441.137 870.446 444.131 866.774 446.006 862.399V856.618C446.006 847.139 443.949 839.431 439.834 833.493C435.72 827.556 430.512 824.587 424.209 824.587C417.855 824.587 412.751 827.035 408.897 831.931C405.043 836.774 403.116 843.181 403.116 851.149C403.116 858.91 404.965 865.316 408.663 870.368C412.413 875.368 417.413 877.868 423.663 877.868ZM551.709 879.353C551.709 896.28 548.819 908.858 543.038 917.087C537.256 925.316 528.22 929.431 515.928 929.431C503.793 929.431 494.808 925.42 488.975 917.399C483.142 909.326 480.121 897.295 479.913 881.306V862.009C479.913 845.29 482.803 832.868 488.584 824.743C494.366 816.618 503.428 812.556 515.772 812.556C528.012 812.556 537.022 816.488 542.803 824.353C548.584 832.165 551.553 844.248 551.709 860.603V879.353ZM537.256 859.587C537.256 847.347 535.538 838.441 532.1 832.868C528.663 827.243 523.22 824.431 515.772 824.431C508.376 824.431 502.986 827.217 499.6 832.79C496.215 838.363 494.47 846.931 494.366 858.493V881.618C494.366 893.91 496.137 902.998 499.678 908.884C503.272 914.717 508.689 917.634 515.928 917.634C523.064 917.634 528.35 914.873 531.788 909.353C535.277 903.832 537.1 895.134 537.256 883.259V859.587ZM644.756 927.868H570.225V917.478L609.6 873.728C615.433 867.113 619.444 861.748 621.631 857.634C623.871 853.467 624.991 849.17 624.991 844.743C624.991 838.806 623.194 833.936 619.6 830.134C616.006 826.332 611.215 824.431 605.225 824.431C598.038 824.431 592.439 826.488 588.428 830.603C584.47 834.665 582.491 840.342 582.491 847.634H568.038C568.038 837.165 571.397 828.701 578.116 822.243C584.887 815.785 593.923 812.556 605.225 812.556C615.798 812.556 624.157 815.342 630.303 820.915C636.449 826.436 639.522 833.806 639.522 843.024C639.522 854.222 632.387 867.556 618.116 883.024L587.647 916.071H644.756V927.868ZM731.397 879.353C731.397 896.28 728.506 908.858 722.725 917.087C716.944 925.316 707.907 929.431 695.616 929.431C683.48 929.431 674.496 925.42 668.663 917.399C662.829 909.326 659.808 897.295 659.6 881.306V862.009C659.6 845.29 662.491 832.868 668.272 824.743C674.053 816.618 683.116 812.556 695.459 812.556C707.699 812.556 716.709 816.488 722.491 824.353C728.272 832.165 731.241 844.248 731.397 860.603V879.353ZM716.944 859.587C716.944 847.347 715.225 838.441 711.788 832.868C708.35 827.243 702.907 824.431 695.459 824.431C688.064 824.431 682.673 827.217 679.288 832.79C675.902 838.363 674.157 846.931 674.053 858.493V881.618C674.053 893.91 675.824 902.998 679.366 908.884C682.959 914.717 688.376 917.634 695.616 917.634C702.751 917.634 708.038 914.873 711.475 909.353C714.965 903.832 716.788 895.134 716.944 883.259V859.587ZM102.491 1067.35C102.491 1084.28 99.6001 1096.86 93.8188 1105.09C88.0376 1113.32 79.0011 1117.43 66.7095 1117.43C54.5741 1117.43 45.5897 1113.42 39.7563 1105.4C33.923 1097.33 30.9022 1085.3 30.6938 1069.31V1050.01C30.6938 1033.29 33.5845 1020.87 39.3657 1012.74C45.147 1004.62 54.2095 1000.56 66.5532 1000.56C78.7928 1000.56 87.8032 1004.49 93.5845 1012.35C99.3657 1020.17 102.334 1032.25 102.491 1048.6V1067.35ZM88.0376 1047.59C88.0376 1035.35 86.3188 1026.44 82.8813 1020.87C79.4438 1015.24 74.0011 1012.43 66.5532 1012.43C59.1574 1012.43 53.7668 1015.22 50.3813 1020.79C46.9959 1026.36 45.2511 1034.93 45.147 1046.49V1069.62C45.147 1081.91 46.9178 1091 50.4595 1096.88C54.0532 1102.72 59.4699 1105.63 66.7095 1105.63C73.8449 1105.63 79.1313 1102.87 82.5688 1097.35C86.0584 1091.83 87.8813 1083.13 88.0376 1071.26V1047.59ZM195.538 1115.87H121.006V1105.48L160.381 1061.73C166.215 1055.11 170.225 1049.75 172.413 1045.63C174.652 1041.47 175.772 1037.17 175.772 1032.74C175.772 1026.81 173.975 1021.94 170.381 1018.13C166.788 1014.33 161.996 1012.43 156.006 1012.43C148.819 1012.43 143.22 1014.49 139.209 1018.6C135.251 1022.67 133.272 1028.34 133.272 1035.63H118.819C118.819 1025.17 122.178 1016.7 128.897 1010.24C135.668 1003.78 144.704 1000.56 156.006 1000.56C166.579 1000.56 174.939 1003.34 181.084 1008.92C187.23 1014.44 190.303 1021.81 190.303 1031.02C190.303 1042.22 183.168 1055.56 168.897 1071.02L138.428 1104.07H195.538V1115.87ZM258.35 1115.87H243.819V1019.54L214.678 1030.24V1017.12L256.084 1001.57H258.35V1115.87ZM372.022 1067.35C372.022 1084.28 369.131 1096.86 363.35 1105.09C357.569 1113.32 348.532 1117.43 336.241 1117.43C324.105 1117.43 315.121 1113.42 309.288 1105.4C303.454 1097.33 300.433 1085.3 300.225 1069.31V1050.01C300.225 1033.29 303.116 1020.87 308.897 1012.74C314.678 1004.62 323.741 1000.56 336.084 1000.56C348.324 1000.56 357.334 1004.49 363.116 1012.35C368.897 1020.17 371.866 1032.25 372.022 1048.6V1067.35ZM357.569 1047.59C357.569 1035.35 355.85 1026.44 352.413 1020.87C348.975 1015.24 343.532 1012.43 336.084 1012.43C328.689 1012.43 323.298 1015.22 319.913 1020.79C316.527 1026.36 314.782 1034.93 314.678 1046.49V1069.62C314.678 1081.91 316.449 1091 319.991 1096.88C323.584 1102.72 329.001 1105.63 336.241 1105.63C343.376 1105.63 348.663 1102.87 352.1 1097.35C355.59 1091.83 357.413 1083.13 357.569 1071.26V1047.59ZM465.069 1115.87H390.538V1105.48L429.913 1061.73C435.746 1055.11 439.756 1049.75 441.944 1045.63C444.183 1041.47 445.303 1037.17 445.303 1032.74C445.303 1026.81 443.506 1021.94 439.913 1018.13C436.319 1014.33 431.527 1012.43 425.538 1012.43C418.35 1012.43 412.751 1014.49 408.741 1018.6C404.782 1022.67 402.803 1028.34 402.803 1035.63H388.35C388.35 1025.17 391.709 1016.7 398.428 1010.24C405.199 1003.78 414.236 1000.56 425.538 1000.56C436.111 1000.56 444.47 1003.34 450.616 1008.92C456.762 1014.44 459.834 1021.81 459.834 1031.02C459.834 1042.22 452.699 1055.56 438.428 1071.02L407.959 1104.07H465.069V1115.87ZM554.913 1115.87H480.381V1105.48L519.756 1061.73C525.59 1055.11 529.6 1049.75 531.788 1045.63C534.027 1041.47 535.147 1037.17 535.147 1032.74C535.147 1026.81 533.35 1021.94 529.756 1018.13C526.163 1014.33 521.371 1012.43 515.381 1012.43C508.194 1012.43 502.595 1014.49 498.584 1018.6C494.626 1022.67 492.647 1028.34 492.647 1035.63H478.194C478.194 1025.17 481.553 1016.7 488.272 1010.24C495.043 1003.78 504.079 1000.56 515.381 1000.56C525.954 1000.56 534.314 1003.34 540.459 1008.92C546.605 1014.44 549.678 1021.81 549.678 1031.02C549.678 1042.22 542.543 1055.56 528.272 1071.02L497.803 1104.07H554.913V1115.87ZM641.553 1067.35C641.553 1084.28 638.663 1096.86 632.881 1105.09C627.1 1113.32 618.064 1117.43 605.772 1117.43C593.637 1117.43 584.652 1113.42 578.819 1105.4C572.986 1097.33 569.965 1085.3 569.756 1069.31V1050.01C569.756 1033.29 572.647 1020.87 578.428 1012.74C584.209 1004.62 593.272 1000.56 605.616 1000.56C617.855 1000.56 626.866 1004.49 632.647 1012.35C638.428 1020.17 641.397 1032.25 641.553 1048.6V1067.35ZM627.1 1047.59C627.1 1035.35 625.381 1026.44 621.944 1020.87C618.506 1015.24 613.064 1012.43 605.616 1012.43C598.22 1012.43 592.829 1015.22 589.444 1020.79C586.058 1026.36 584.314 1034.93 584.209 1046.49V1069.62C584.209 1081.91 585.98 1091 589.522 1096.88C593.116 1102.72 598.532 1105.63 605.772 1105.63C612.907 1105.63 618.194 1102.87 621.631 1097.35C625.121 1091.83 626.944 1083.13 627.1 1071.26V1047.59ZM734.6 1115.87H660.069V1105.48L699.444 1061.73C705.277 1055.11 709.288 1049.75 711.475 1045.63C713.715 1041.47 714.834 1037.17 714.834 1032.74C714.834 1026.81 713.038 1021.94 709.444 1018.13C705.85 1014.33 701.058 1012.43 695.069 1012.43C687.881 1012.43 682.282 1014.49 678.272 1018.6C674.314 1022.67 672.334 1028.34 672.334 1035.63H657.881C657.881 1025.17 661.241 1016.7 667.959 1010.24C674.73 1003.78 683.767 1000.56 695.069 1000.56C705.642 1000.56 714.001 1003.34 720.147 1008.92C726.293 1014.44 729.366 1021.81 729.366 1031.02C729.366 1042.22 722.23 1055.56 707.959 1071.02L677.491 1104.07H734.6V1115.87ZM52.1782 1239.96H63.0376C69.8605 1239.86 75.2251 1238.06 79.1313 1234.57C83.0376 1231.08 84.9907 1226.37 84.9907 1220.43C84.9907 1207.1 78.3501 1200.43 65.0688 1200.43C58.8188 1200.43 53.8188 1202.23 50.0688 1205.82C46.3709 1209.36 44.522 1214.08 44.522 1219.96H30.0688C30.0688 1210.95 33.3501 1203.48 39.9126 1197.54C46.5272 1191.55 54.9126 1188.56 65.0688 1188.56C75.798 1188.56 84.2095 1191.39 90.3032 1197.07C96.397 1202.75 99.4438 1210.64 99.4438 1220.74C99.4438 1225.69 97.8293 1230.48 94.6001 1235.12C91.423 1239.75 87.0741 1243.22 81.5532 1245.51C87.8032 1247.49 92.6209 1250.77 96.0063 1255.35C99.4438 1259.94 101.163 1265.53 101.163 1272.15C101.163 1282.36 97.8293 1290.46 91.1626 1296.45C84.4959 1302.44 75.8241 1305.43 65.147 1305.43C54.4699 1305.43 45.772 1302.54 39.0532 1296.76C32.3866 1290.98 29.0532 1283.35 29.0532 1273.87H43.5845C43.5845 1279.86 45.5376 1284.65 49.4438 1288.24C53.3501 1291.84 58.5845 1293.63 65.147 1293.63C72.1261 1293.63 77.4647 1291.81 81.1626 1288.17C84.8605 1284.52 86.7095 1279.28 86.7095 1272.46C86.7095 1265.85 84.6782 1260.77 80.6157 1257.23C76.5532 1253.69 70.6938 1251.86 63.0376 1251.76H52.1782V1239.96ZM192.334 1255.35C192.334 1272.28 189.444 1284.86 183.663 1293.09C177.881 1301.32 168.845 1305.43 156.553 1305.43C144.418 1305.43 135.433 1301.42 129.6 1293.4C123.767 1285.33 120.746 1273.3 120.538 1257.31V1238.01C120.538 1221.29 123.428 1208.87 129.209 1200.74C134.991 1192.62 144.053 1188.56 156.397 1188.56C168.637 1188.56 177.647 1192.49 183.428 1200.35C189.209 1208.17 192.178 1220.25 192.334 1236.6V1255.35ZM177.881 1235.59C177.881 1223.35 176.163 1214.44 172.725 1208.87C169.288 1203.24 163.845 1200.43 156.397 1200.43C149.001 1200.43 143.611 1203.22 140.225 1208.79C136.84 1214.36 135.095 1222.93 134.991 1234.49V1257.62C134.991 1269.91 136.762 1279 140.303 1284.88C143.897 1290.72 149.314 1293.63 156.553 1293.63C163.689 1293.63 168.975 1290.87 172.413 1285.35C175.902 1279.83 177.725 1271.13 177.881 1259.26V1235.59ZM285.381 1303.87H210.85V1293.48L250.225 1249.73C256.058 1243.11 260.069 1237.75 262.256 1233.63C264.496 1229.47 265.616 1225.17 265.616 1220.74C265.616 1214.81 263.819 1209.94 260.225 1206.13C256.631 1202.33 251.84 1200.43 245.85 1200.43C238.663 1200.43 233.064 1202.49 229.053 1206.6C225.095 1210.67 223.116 1216.34 223.116 1223.63H208.663C208.663 1213.17 212.022 1204.7 218.741 1198.24C225.512 1191.78 234.548 1188.56 245.85 1188.56C256.423 1188.56 264.782 1191.34 270.928 1196.92C277.074 1202.44 280.147 1209.81 280.147 1219.02C280.147 1230.22 273.012 1243.56 258.741 1259.02L228.272 1292.07H285.381V1303.87ZM361.709 1265.67H377.491V1277.46H361.709V1303.87H347.178V1277.46H295.381V1268.95L346.319 1190.12H361.709V1265.67ZM311.788 1265.67H347.178V1209.88L345.459 1213.01L311.788 1265.67ZM461.866 1255.35C461.866 1272.28 458.975 1284.86 453.194 1293.09C447.413 1301.32 438.376 1305.43 426.084 1305.43C413.949 1305.43 404.965 1301.42 399.131 1293.4C393.298 1285.33 390.277 1273.3 390.069 1257.31V1238.01C390.069 1221.29 392.959 1208.87 398.741 1200.74C404.522 1192.62 413.584 1188.56 425.928 1188.56C438.168 1188.56 447.178 1192.49 452.959 1200.35C458.741 1208.17 461.709 1220.25 461.866 1236.6V1255.35ZM447.413 1235.59C447.413 1223.35 445.694 1214.44 442.256 1208.87C438.819 1203.24 433.376 1200.43 425.928 1200.43C418.532 1200.43 413.142 1203.22 409.756 1208.79C406.371 1214.36 404.626 1222.93 404.522 1234.49V1257.62C404.522 1269.91 406.293 1279 409.834 1284.88C413.428 1290.72 418.845 1293.63 426.084 1293.63C433.22 1293.63 438.506 1290.87 441.944 1285.35C445.433 1279.83 447.256 1271.13 447.413 1259.26V1235.59ZM554.913 1303.87H480.381V1293.48L519.756 1249.73C525.59 1243.11 529.6 1237.75 531.788 1233.63C534.027 1229.47 535.147 1225.17 535.147 1220.74C535.147 1214.81 533.35 1209.94 529.756 1206.13C526.163 1202.33 521.371 1200.43 515.381 1200.43C508.194 1200.43 502.595 1202.49 498.584 1206.6C494.626 1210.67 492.647 1216.34 492.647 1223.63H478.194C478.194 1213.17 481.553 1204.7 488.272 1198.24C495.043 1191.78 504.079 1188.56 515.381 1188.56C525.954 1188.56 534.314 1191.34 540.459 1196.92C546.605 1202.44 549.678 1209.81 549.678 1219.02C549.678 1230.22 542.543 1243.56 528.272 1259.02L497.803 1292.07H554.913V1303.87ZM576.866 1246.84L582.647 1190.12H640.928V1203.48H594.913L591.475 1234.49C597.048 1231.21 603.376 1229.57 610.459 1229.57C620.824 1229.57 629.053 1233.01 635.147 1239.88C641.241 1246.71 644.288 1255.95 644.288 1267.62C644.288 1279.34 641.111 1288.58 634.756 1295.35C628.454 1302.07 619.626 1305.43 608.272 1305.43C598.22 1305.43 590.017 1302.64 583.663 1297.07C577.308 1291.5 573.689 1283.79 572.803 1273.95H586.475C587.361 1280.46 589.678 1285.38 593.428 1288.71C597.178 1291.99 602.126 1293.63 608.272 1293.63C614.991 1293.63 620.251 1291.34 624.053 1286.76C627.907 1282.18 629.834 1275.85 629.834 1267.77C629.834 1260.17 627.751 1254.08 623.584 1249.49C619.47 1244.86 613.975 1242.54 607.1 1242.54C600.798 1242.54 595.85 1243.92 592.256 1246.68L588.428 1249.81L576.866 1246.84ZM731.397 1255.35C731.397 1272.28 728.506 1284.86 722.725 1293.09C716.944 1301.32 707.907 1305.43 695.616 1305.43C683.48 1305.43 674.496 1301.42 668.663 1293.4C662.829 1285.33 659.808 1273.3 659.6 1257.31V1238.01C659.6 1221.29 662.491 1208.87 668.272 1200.74C674.053 1192.62 683.116 1188.56 695.459 1188.56C707.699 1188.56 716.709 1192.49 722.491 1200.35C728.272 1208.17 731.241 1220.25 731.397 1236.6V1255.35ZM716.944 1235.59C716.944 1223.35 715.225 1214.44 711.788 1208.87C708.35 1203.24 702.907 1200.43 695.459 1200.43C688.064 1200.43 682.673 1203.22 679.288 1208.79C675.902 1214.36 674.157 1222.93 674.053 1234.49V1257.62C674.053 1269.91 675.824 1279 679.366 1284.88C682.959 1290.72 688.376 1293.63 695.616 1293.63C702.751 1293.63 708.038 1290.87 711.475 1285.35C714.965 1279.83 716.788 1271.13 716.944 1259.26V1235.59Z" fill="#24253A"/>
<path d="M32 64C49.6731 64 64 49.6731 64 32C64 14.3269 49.6731 0 32 0C14.3269 0 0 14.3269 0 32C0 49.6731 14.3269 64 32 64Z" fill="#98E0E4"/>
<path d="M52 21.7949V49.7949C52 50.056 51.8963 50.3065 51.7116 50.4911C51.527 50.6757 51.2766 50.7794 51.0155 50.7794H12.9845C12.7234 50.7794 12.473 50.6757 12.2884 50.4911C12.1037 50.3065 12 50.056 12 49.7949V21.7949H52Z" fill="#ECF7F8"/>
<path d="M52 17.1183V23.4008H12V17.1183C12 16.989 12.0255 16.861 12.0749 16.7415C12.1244 16.6221 12.1969 16.5136 12.2884 16.4221C12.3798 16.3307 12.4883 16.2582 12.6077 16.2087C12.7272 16.1593 12.8552 16.1338 12.9845 16.1338H51.0155C51.2766 16.1338 51.527 16.2375 51.7116 16.4221C51.8963 16.6068 52 16.8572 52 17.1183Z" fill="#E06B89"/>
<path d="M47.5283 14.5962C47.5283 13.8371 46.913 13.2217 46.154 13.2217C45.3951 13.2217 44.7798 13.8371 44.7798 14.5962V17.6712C44.7798 18.4303 45.3951 19.0457 46.154 19.0457C46.913 19.0457 47.5283 18.4303 47.5283 17.6712V14.5962Z" fill="#DAF2F5"/>
<path d="M38.0918 14.5962C38.0918 13.8371 37.4765 13.2217 36.7175 13.2217C35.9585 13.2217 35.3433 13.8371 35.3433 14.5962V17.6712C35.3433 18.4303 35.9585 19.0457 36.7175 19.0457C37.4765 19.0457 38.0918 18.4303 38.0918 17.6712V14.5962Z" fill="#DAF2F5"/>
<path d="M28.6562 14.5962C28.6562 13.8371 28.0409 13.2217 27.282 13.2217C26.523 13.2217 25.9077 13.8371 25.9077 14.5962V17.6712C25.9077 18.4303 26.523 19.0457 27.282 19.0457C28.0409 19.0457 28.6562 18.4303 28.6562 17.6712V14.5962Z" fill="#DAF2F5"/>
<path d="M19.2207 14.5962C19.2207 13.8371 18.6054 13.2217 17.8464 13.2217C17.0874 13.2217 16.4722 13.8371 16.4722 14.5962V17.6712C16.4722 18.4303 17.0874 19.0457 17.8464 19.0457C18.6054 19.0457 19.2207 18.4303 19.2207 17.6712V14.5962Z" fill="#DAF2F5"/>
<path d="M18.2747 26.8545H15.1782C14.9131 26.8545 14.6982 27.0694 14.6982 27.3345V30.4365C14.6982 30.7016 14.9131 30.9165 15.1782 30.9165H18.2747C18.5398 30.9165 18.7547 30.7016 18.7547 30.4365V27.3345C18.7547 27.0694 18.5398 26.8545 18.2747 26.8545Z" fill="#BFE9EF"/>
<path d="M25.9115 26.8545H22.815C22.5499 26.8545 22.335 27.0694 22.335 27.3345V30.4365C22.335 30.7016 22.5499 30.9165 22.815 30.9165H25.9115C26.1766 30.9165 26.3915 30.7016 26.3915 30.4365V27.3345C26.3915 27.0694 26.1766 26.8545 25.9115 26.8545Z" fill="#BFE9EF"/>
<path d="M33.5482 26.8545H30.4517C30.1866 26.8545 29.9717 27.0694 29.9717 27.3345V30.4365C29.9717 30.7016 30.1866 30.9165 30.4517 30.9165H33.5482C33.8133 30.9165 34.0282 30.7016 34.0282 30.4365V27.3345C34.0282 27.0694 33.8133 26.8545 33.5482 26.8545Z" fill="#BFE9EF"/>
<path d="M41.1849 26.8545H38.0884C37.8233 26.8545 37.6084 27.0694 37.6084 27.3345V30.4365C37.6084 30.7016 37.8233 30.9165 38.0884 30.9165H41.1849C41.45 30.9165 41.6649 30.7016 41.6649 30.4365V27.3345C41.6649 27.0694 41.45 26.8545 41.1849 26.8545Z" fill="#BFE9EF"/>
<path d="M48.8216 26.8545H45.7251C45.46 26.8545 45.2451 27.0694 45.2451 27.3345V30.4365C45.2451 30.7016 45.46 30.9165 45.7251 30.9165H48.8216C49.0867 30.9165 49.3016 30.7016 49.3016 30.4365V27.3345C49.3016 27.0694 49.0867 26.8545 48.8216 26.8545Z" fill="#BFE9EF"/>
<path d="M18.2747 34.8545H15.1782C14.9131 34.8545 14.6982 35.0694 14.6982 35.3345V38.4365C14.6982 38.7016 14.9131 38.9165 15.1782 38.9165H18.2747C18.5398 38.9165 18.7547 38.7016 18.7547 38.4365V35.3345C18.7547 35.0694 18.5398 34.8545 18.2747 34.8545Z" fill="#BFE9EF"/>
<path d="M25.9115 34.8545H22.815C22.5499 34.8545 22.335 35.0694 22.335 35.3345V38.4365C22.335 38.7016 22.5499 38.9165 22.815 38.9165H25.9115C26.1766 38.9165 26.3915 38.7016 26.3915 38.4365V35.3345C26.3915 35.0694 26.1766 34.8545 25.9115 34.8545Z" fill="#BFE9EF"/>
<path d="M33.5482 34.8545H30.4517C30.1866 34.8545 29.9717 35.0694 29.9717 35.3345V38.4365C29.9717 38.7016 30.1866 38.9165 30.4517 38.9165H33.5482C33.8133 38.9165 34.0282 38.7016 34.0282 38.4365V35.3345C34.0282 35.0694 33.8133 34.8545 33.5482 34.8545Z" fill="#BFE9EF"/>
<path d="M41.1849 34.8545H38.0884C37.8233 34.8545 37.6084 35.0694 37.6084 35.3345V38.4365C37.6084 38.7016 37.8233 38.9165 38.0884 38.9165H41.1849C41.45 38.9165 41.6649 38.7016 41.6649 38.4365V35.3345C41.6649 35.0694 41.45 34.8545 41.1849 34.8545Z" fill="#BFE9EF"/>
<path d="M48.8216 34.8545H45.7251C45.46 34.8545 45.2451 35.0694 45.2451 35.3345V38.4365C45.2451 38.7016 45.46 38.9165 45.7251 38.9165H48.8216C49.0867 38.9165 49.3016 38.7016 49.3016 38.4365V35.3345C49.3016 35.0694 49.0867 34.8545 48.8216 34.8545Z" fill="#BFE9EF"/>
<path d="M18.2747 42.8545H15.1782C14.9131 42.8545 14.6982 43.0694 14.6982 43.3345V46.4365C14.6982 46.7016 14.9131 46.9165 15.1782 46.9165H18.2747C18.5398 46.9165 18.7547 46.7016 18.7547 46.4365V43.3345C18.7547 43.0694 18.5398 42.8545 18.2747 42.8545Z" fill="#BFE9EF"/>
<path d="M25.9115 42.8545H22.815C22.5499 42.8545 22.335 43.0694 22.335 43.3345V46.4365C22.335 46.7016 22.5499 46.9165 22.815 46.9165H25.9115C26.1766 46.9165 26.3915 46.7016 26.3915 46.4365V43.3345C26.3915 43.0694 26.1766 42.8545 25.9115 42.8545Z" fill="#BFE9EF"/>
<path d="M33.5482 42.8545H30.4517C30.1866 42.8545 29.9717 43.0694 29.9717 43.3345V46.4365C29.9717 46.7016 30.1866 46.9165 30.4517 46.9165H33.5482C33.8133 46.9165 34.0282 46.7016 34.0282 46.4365V43.3345C34.0282 43.0694 33.8133 42.8545 33.5482 42.8545Z" fill="#BFE9EF"/>
<path d="M41.1849 42.8545H38.0884C37.8233 42.8545 37.6084 43.0694 37.6084 43.3345V46.4365C37.6084 46.7016 37.8233 46.9165 38.0884 46.9165H41.1849C41.45 46.9165 41.6649 46.7016 41.6649 46.4365V43.3345C41.6649 43.0694 41.45 42.8545 41.1849 42.8545Z" fill="#BFE9EF"/>
<path d="M48.8216 42.8545H45.7251C45.46 42.8545 45.2451 43.0694 45.2451 43.3345V46.4365C45.2451 46.7016 45.46 46.9165 45.7251 46.9165H48.8216C49.0867 46.9165 49.3016 46.7016 49.3016 46.4365V43.3345C49.3016 43.0694 49.0867 42.8545 48.8216 42.8545Z" fill="#BFE9EF"/>
</g>
<defs>
<clipPath id="clip0">
<rect width="64" height="64" fill="white"/>
</clipPath>
</defs>
</svg>
