<svg width="64" height="64" viewBox="0 0 64 64" fill="none" xmlns="http://www.w3.org/2000/svg">
<g clip-path="url(#clip0)">
<path d="M32 64C49.6731 64 64 49.6731 64 32C64 14.3269 49.6731 0 32 0C14.3269 0 0 14.3269 0 32C0 49.6731 14.3269 64 32 64Z" fill="#98E0E4"/>
<path d="M23.8232 46.4352L40.2775 62.8895C53.9053 59.2554 63.9999 46.839 63.9999 31.9999C63.9999 31.697 63.9999 31.3942 63.9999 31.0914L51.0788 19.1797L23.8232 46.4352Z" fill="#75BFCA"/>
<path d="M32.8078 39.1666C34.221 40.5799 34.221 43.0026 32.8078 44.4158L29.8803 47.3433C28.4671 48.7565 26.0444 48.7565 24.6311 47.3433L11.8109 34.4221C10.3977 33.0089 10.3977 30.5862 11.8109 29.1729L14.7384 26.2455C16.1516 24.8322 18.5743 24.8322 19.9876 26.2455L32.8078 39.1666Z" fill="white"/>
<path d="M44.0123 16.8578C45.4255 15.4445 47.8482 15.4445 49.2615 16.8578L52.1889 19.7852C53.6022 21.1985 53.6022 23.6212 52.1889 25.0344L29.9807 47.1417C28.5675 48.555 26.1448 48.555 24.7315 47.1417L21.8041 44.2143C20.3908 42.801 20.3908 40.3783 21.8041 38.965L44.0123 16.8578Z" fill="white"/>
</g>
<defs>
<clipPath id="clip0">
<rect width="64" height="64" fill="white"/>
</clipPath>
</defs>
</svg>
