<svg width="140" height="138" viewBox="0 0 140 138" fill="none" xmlns="http://www.w3.org/2000/svg">
<path d="M137.812 74.1814C137.812 61.3038 128.548 29.4887 119.499 20.6093C92.1613 -6.21255 47.8393 -6.21255 20.5027 20.6093C-6.83395 47.4312 -6.8345 90.9177 20.5027 117.739C29.8548 126.915 41.1948 132.95 53.1626 135.847H78.75L105.814 126.673L128.198 105.51L137.812 74.1814Z" fill="#98E0E4"/>
<path d="M56.6172 52.0681V105.45H75.2975L101.651 120.226L95.3097 105.45H121.305C124.597 100.273 127.203 94.6329 129 88.6531V52.0681H56.6172Z" fill="#75BFCA"/>
<path d="M70.9538 11.751V65.133H52.2746L25.92 79.9095L32.2603 65.133H4.375C5.69519 42.8026 13.6313 23.3364 31.5799 11.751H70.9538Z" fill="#75BFCA"/>
<path d="M4.58838 11.751H76.9713V65.133H4.58838V11.751Z" fill="white"/>
<path d="M39.7092 61.7966L31.9365 79.9089L65.9421 60.844L39.7092 61.7966Z" fill="white"/>
<path d="M34.1412 38.4417C34.1412 40.6173 32.3447 42.3811 30.1273 42.3811C27.9109 42.3811 26.1133 40.6173 26.1133 38.4417C26.1133 36.2672 27.9109 34.5034 30.1273 34.5034C32.3447 34.5034 34.1412 36.2672 34.1412 38.4417Z" fill="#C62D54"/>
<path d="M44.7946 38.4417C44.7946 40.6173 42.998 42.3811 40.7806 42.3811C38.5632 42.3811 36.7666 40.6173 36.7666 38.4417C36.7666 36.2672 38.5632 34.5034 40.7806 34.5034C42.998 34.5034 44.7946 36.2672 44.7946 38.4417Z" fill="#C62D54"/>
<path d="M55.4479 38.4417C55.4479 40.6173 53.6503 42.3811 51.434 42.3811C49.2166 42.3811 47.4189 40.6173 47.4189 38.4417C47.4189 36.2672 49.2166 34.5034 51.434 34.5034C53.6503 34.5034 55.4479 36.2672 55.4479 38.4417Z" fill="#C62D54"/>
<path d="M137.144 52.0681V88.6531C135.347 94.6329 132.741 100.273 129.449 105.45H64.7607V52.0681H137.144Z" fill="#C62D54"/>
<path d="M102.02 102.114L109.793 120.226L75.7876 101.161L102.02 102.114Z" fill="#C62D54"/>
<path d="M115.618 78.7581C115.618 80.9337 113.821 82.6975 111.603 82.6975C109.387 82.6975 107.589 80.9337 107.589 78.7581C107.589 76.5836 109.387 74.8198 111.603 74.8198C113.821 74.8198 115.618 76.5836 115.618 78.7581Z" fill="white"/>
<path d="M104.966 78.7581C104.966 80.9337 103.168 82.6975 100.952 82.6975C98.7342 82.6975 96.9365 80.9337 96.9365 78.7581C96.9365 76.5836 98.7342 74.8198 100.952 74.8198C103.168 74.8198 104.966 76.5836 104.966 78.7581Z" fill="white"/>
<path d="M94.3112 78.7581C94.3112 80.9337 92.5136 82.6975 90.2962 82.6975C88.0799 82.6975 86.2822 80.9337 86.2822 78.7581C86.2822 76.5836 88.0799 74.8198 90.2962 74.8198C92.5136 74.8198 94.3112 76.5836 94.3112 78.7581Z" fill="white"/>
<path d="M138 69.1734C138 105.964 107.591 135.854 70 135.854C32.4086 135.854 2 105.964 2 69.1734C2 32.3825 32.4086 2.49292 70 2.49292C107.591 2.49292 138 32.3825 138 69.1734Z" stroke="white" stroke-width="4"/>
</svg>
