<svg width="64" height="64" viewBox="0 0 64 64" fill="none" xmlns="http://www.w3.org/2000/svg">
<g clip-path="url(#clip0)">
<path d="M32 64C49.6731 64 64 49.6731 64 32C64 14.3269 49.6731 0 32 0C14.3269 0 0 14.3269 0 32C0 49.6731 14.3269 64 32 64Z" fill="#98E0E4"/>
<path d="M37.179 63.5809C52.3888 61.1053 63.9997 47.9098 63.9997 32.0003C63.9997 30.6516 63.9152 29.3227 63.7532 28.0178L52.2168 16.4814L50.098 20.8667L42.2497 18.1254H38.8122V20.8667V23.3129L44.6962 32.0463L44.4017 32.6559L28.5762 16.8304L8.52734 32.0003L14.6825 38.1553L13.2291 39.6309L37.179 63.5809Z" fill="#75BFCA"/>
<path d="M58.2385 50.3194L49.5581 46.4017C48.5081 45.9279 47.8094 44.691 47.8094 43.3062V40.251H40.4061V43.3062C40.4061 44.691 39.7074 45.9279 38.6574 46.4017L27.2739 51.5394L24.0679 56.9544C28.0549 60.1589 32.8259 62.4272 38.0474 63.4272C46.3746 61.8344 53.555 57.0152 58.2385 50.3194Z" fill="#FFBEAA"/>
<path d="M58.2386 50.3194L49.5583 46.4017C48.5083 45.9279 47.8095 44.691 47.8095 43.3062V40.251H44.25V61.5674C49.9185 59.2164 54.7655 55.2847 58.2386 50.3194Z" fill="#E09380"/>
<path d="M35.2831 32.9061C36.7104 32.9061 37.8675 31.749 37.8675 30.3217C37.8675 28.8944 36.7104 27.7373 35.2831 27.7373C33.8558 27.7373 32.6987 28.8944 32.6987 30.3217C32.6987 31.749 33.8558 32.9061 35.2831 32.9061Z" fill="#FFBEAA"/>
<path d="M53.1176 32.9061C54.5449 32.9061 55.702 31.749 55.702 30.3217C55.702 28.8944 54.5449 27.7373 53.1176 27.7373C51.6903 27.7373 50.5332 28.8944 50.5332 30.3217C50.5332 31.749 51.6903 32.9061 53.1176 32.9061Z" fill="#E09380"/>
<path d="M44.2001 15.6934C38.841 15.6934 34.4966 20.0377 34.4966 25.3969V32.3869C34.4966 36.0546 36.5478 39.4145 39.8103 41.0905L42.012 42.2215C43.3853 42.927 45.0147 42.927 46.3881 42.2215L48.5897 41.0905C51.8522 39.4145 53.9035 36.0547 53.9035 32.3869V25.3969C53.9036 20.0379 49.5591 15.6934 44.2001 15.6934Z" fill="#FFCDBE"/>
<path d="M44.25 15.6943V42.7488C44.9841 42.7412 45.7169 42.5661 46.3884 42.2212L48.59 41.0902C51.8525 39.4142 53.9038 36.0545 53.9038 32.3866V25.3966C53.9039 20.0542 49.5861 15.7212 44.25 15.6943Z" fill="#FAA68E"/>
<path d="M10.5786 32.9716C12.0424 32.9716 13.229 31.785 13.229 30.3213C13.229 28.8575 12.0424 27.6709 10.5786 27.6709C9.11484 27.6709 7.92822 28.8575 7.92822 30.3213C7.92822 31.785 9.11484 32.9716 10.5786 32.9716Z" fill="#E09380"/>
<path d="M28.8686 32.9716C30.3324 32.9716 31.519 31.785 31.519 30.3213C31.519 28.8575 30.3324 27.6709 28.8686 27.6709C27.4049 27.6709 26.2183 28.8575 26.2183 30.3213C26.2183 31.785 27.4049 32.9716 28.8686 32.9716Z" fill="#CC6D58"/>
<path d="M43.2054 61.9816L37.9816 53.7652C37.0584 52.3131 35.7309 51.1622 34.1624 50.4544L25.183 46.4017C24.133 45.9278 23.4343 44.691 23.4343 43.3062V40.251H16.031V43.3062C16.031 44.691 15.3323 45.9278 14.2823 46.4017L5.72314 50.2646C11.5043 58.5662 21.1166 64.0005 31.9998 64.0005C35.9424 64.0005 39.7178 63.2857 43.2054 61.9816Z" fill="#E09380"/>
<path d="M43.2056 61.9815L37.9819 53.7651C37.0586 52.3129 35.7311 51.1621 34.1626 50.4542L25.1833 46.4017C24.1333 45.9279 23.4345 44.691 23.4345 43.3062V40.251H19.6875V61.5443C23.4775 63.126 27.6364 64.0004 32 64.0004C35.9426 64.0004 39.718 63.2856 43.2056 61.9815Z" fill="#FFBFAF"/>
<path d="M19.724 15.6934C14.3649 15.6934 10.0205 20.0377 10.0205 25.3969V32.3869C10.0205 36.0546 12.0718 39.4145 15.3343 41.0905L17.5359 42.2215C18.9093 42.927 20.5386 42.927 21.912 42.2215L24.1136 41.0905C27.3761 39.4145 29.4274 36.0547 29.4274 32.3869V25.3969C29.4275 20.0379 25.0831 15.6934 19.724 15.6934Z" fill="#FFBFAF"/>
<path d="M19.7239 15.6934C19.7116 15.6934 19.6997 15.6942 19.6875 15.6942V42.7495C20.4503 42.7552 21.2141 42.5799 21.912 42.2214L24.1136 41.0904C27.3761 39.4144 29.4274 36.0546 29.4274 32.3867V25.3967C29.4274 20.0379 25.083 15.6934 19.7239 15.6934Z" fill="#EAA798"/>
<path d="M39.208 63.1803C47.0404 61.377 53.7744 56.702 58.2389 50.3193L49.7807 46.502C48.562 48.3438 46.4729 49.5593 44.0992 49.5593C41.728 49.5593 39.6409 48.3466 38.4217 46.5083L27.2744 51.5393C30.4452 56.0927 33.9712 60.6712 39.208 63.1803Z" fill="#BFE9EF"/>
<path d="M58.2386 50.3193L49.7804 46.502C48.5878 48.3046 46.5611 49.5065 44.25 49.557V61.5662C49.9186 59.2157 54.7656 55.2846 58.2386 50.3193Z" fill="#DCF4F5"/>
<path d="M37.9816 53.7652C37.0584 52.313 35.7309 51.1622 34.1624 50.4543L25.4051 46.502C24.1865 48.3438 22.0975 49.5593 19.7236 49.5593C17.3525 49.5593 15.2654 48.3466 14.0461 46.5083L5.72314 50.2647C11.5043 58.5663 21.1166 64.0006 31.9998 64.0006C35.9424 64.0006 39.7178 63.2858 43.2054 61.9817L37.9816 53.7652Z" fill="#BFE9EF"/>
<path d="M43.2056 61.9816L37.9819 53.7652C37.0586 52.313 35.7311 51.1622 34.1626 50.4543L25.4054 46.502C24.1867 48.3438 22.0977 49.5593 19.7239 49.5593C19.7118 49.5593 19.6996 49.5588 19.6875 49.5587V61.5443C23.4775 63.1261 27.6364 64.0005 32 64.0005C35.9426 64.0005 39.718 63.2857 43.2056 61.9816Z" fill="#ECF7F8"/>
<path d="M20.9534 13.2314H18.495C12.2817 13.2314 8.49479 19.0416 8.49479 23.2317L8.49366 26.4541C8.49279 28.9197 8.25266 31.2779 10.0377 32.9788V29.6948C18.7892 27.2931 23.7769 22.9023 23.7769 22.9023C24.944 26.0602 27.4357 28.0167 29.4084 29.1292V32.9788L29.4098 32.9776C31.194 31.2774 30.9538 28.9206 30.9538 26.4561V23.2318C30.9537 18.5833 27.1668 13.2314 20.9534 13.2314Z" fill="#EFA2B6"/>
<path d="M30.9534 26.4559V23.2317C30.9534 18.5833 27.1665 13.2314 20.9531 13.2314H19.6875V25.6917C22.3509 24.1569 23.7765 22.9023 23.7765 22.9023C24.9436 26.0602 27.4353 28.0167 29.408 29.1292V32.9788L29.4094 32.9776C31.1936 31.2773 30.9534 28.9204 30.9534 26.4559Z" fill="#FCCDD9"/>
<path d="M54.8765 23.1228C54.8765 17.8076 50.5678 13.499 45.2528 13.499H43.1498C37.8347 13.499 33.526 17.8078 33.526 23.1228L33.5249 27.9303C33.5248 28.6589 34.1154 29.2496 34.8439 29.2496H34.8445L34.8448 28.4039C34.8448 23.7455 38.6212 19.9691 43.2795 19.9691H45.1227C49.781 19.9691 53.5574 23.7455 53.5574 28.4039V29.2496C54.2859 29.2496 54.8764 28.6591 54.8764 27.9306V23.1228H54.8765Z" fill="#EFA2B6"/>
<path d="M45.2529 13.499H44.25V19.9691H45.1229C49.7812 19.9691 53.5576 23.7455 53.5576 28.4039V29.2498C54.2861 29.2498 54.8766 28.6593 54.8766 27.9308V23.1229C54.8767 17.8078 50.568 13.499 45.2529 13.499Z" fill="#FCCDD9"/>
</g>
<defs>
<clipPath id="clip0">
<rect width="64" height="64" fill="white"/>
</clipPath>
</defs>
</svg>
