<svg width="48" height="48" viewBox="0 0 48 48" fill="none" xmlns="http://www.w3.org/2000/svg">
<path d="M47.1967 17.8301C46.1483 13.8735 44.0736 10.1324 40.9709 7.02956C31.5982 -2.34319 16.4021 -2.34319 7.02949 7.02956C-2.34307 16.4023 -2.34326 31.5984 7.02949 40.971C10.2359 44.1774 14.1239 46.2863 18.2272 47.2988L47.1967 17.8301Z" fill="#98E0E4"/>
<path d="M40.9708 40.9711C47.2407 34.7012 49.3153 25.8255 47.1966 17.8301L39.7902 10.4238L34.6253 17.0645L7.86902 31.9234L6.88184 35.9536L18.2271 47.2988C26.1179 49.2462 34.8046 47.1373 40.9708 40.9711Z" fill="#75BFCA"/>
<path d="M39.7902 10.4237L37.9455 8.57904H34.9941V11.5305L36.8388 13.3752L28.7593 21.4547L25.0331 23.7051L26.5089 23.705L24.2953 25.9187C23.6842 26.5298 23.6841 27.5209 24.2953 28.1322C24.9066 28.7434 25.8977 28.7433 26.5088 28.1322L39.7903 14.8507C41.0128 13.6283 41.0128 11.6463 39.7902 10.4237Z" fill="#E5F7F8"/>
<path d="M36.8384 7.47234C35.2084 5.84231 32.5657 5.84231 30.9355 7.47234L34.9938 11.5306L37.9452 8.57915L36.8384 7.47234Z" fill="#394B48"/>
<path d="M36.0619 17.0712C34.8393 15.8486 33.1105 14.1198 33.1105 14.1198L27.9455 11.9062L9.79412 33.009C10.2016 33.4164 10.2016 34.0772 9.79412 34.4847C9.38668 34.8921 8.72593 34.8921 8.3184 34.4847H6.84277V35.9604C8.06537 37.183 10.0474 37.183 11.2698 35.9604L22.7805 24.4498H25.7319L30.1591 20.0227L31.6348 21.4985C32.8574 22.7211 34.8394 22.7211 36.0619 21.4985C37.2844 20.2759 37.2844 18.2938 36.0619 17.0712Z" fill="#C62D54"/>
<path d="M8.35751 33.0022C8.76494 32.5948 9.42569 32.5948 9.83322 33.0022L30.1981 12.6374L27.2466 11.1617L6.88179 31.5265C5.6592 32.7491 5.6592 34.7312 6.88179 35.9537L8.35751 34.478C7.94998 34.0704 7.94998 33.4097 8.35751 33.0022Z" fill="#FF7094"/>
<path d="M31.6737 15.5886L33.1494 14.1129L30.9359 11.8994L29.4602 13.3751L31.6737 15.5886Z" fill="#616F6D"/>
<path d="M27.2465 11.1617L29.46 13.3752L30.9357 11.8995L28.7221 9.68598L27.2465 11.1617Z" fill="#889391"/>
<path d="M25.7705 21.4916L30.1978 25.9188L31.6734 24.4431L30.1978 21.4916L27.2462 20.0159L25.7705 21.4916Z" fill="#263230"/>
<path d="M31.6737 24.4431L33.1494 22.9674L28.7223 18.5403L27.2466 20.016L31.6737 24.4431Z" fill="#394B48"/>
<circle cx="24" cy="24" r="22.5" stroke="white" stroke-width="3"/>
</svg>
