<svg width="140" height="140" viewBox="0 0 140 140" fill="none" xmlns="http://www.w3.org/2000/svg">
<path d="M137.812 75.1042C137.812 61.9792 128.548 29.5528 119.499 20.5029C92.1613 -6.8343 47.8393 -6.8343 20.5027 20.5029C-6.83395 47.8401 -6.8345 92.1621 20.5027 119.499C29.8548 128.851 41.1948 135.002 53.1626 137.955H78.75L105 127.604L126.146 106.458L137.812 75.1042Z" fill="#98E0E4"/>
<path d="M137.158 78.2351C132.665 108.63 108.63 132.665 78.2351 137.158L38.457 97.3732L97.3732 38.457L137.158 78.2351Z" fill="#75BFCA"/>
<path d="M27.708 69.3733C27.708 46.3652 46.3649 27.7083 69.373 27.7083C92.3812 27.7083 111.038 46.3652 111.038 69.3733C111.038 92.3814 92.3812 111.038 69.373 111.038C46.3649 111.038 27.708 92.3814 27.708 69.3733Z" fill="#C62D54"/>
<path d="M74.8861 76.0351V84.7827C74.8861 87.5616 72.5498 89.8399 69.7003 89.8399C66.8443 89.8399 64.5146 87.5616 64.5146 84.7827V73.4935C64.5146 65.6445 80.0267 70.5606 79.3655 57.5259C79.0702 51.7112 73.538 47.2766 68.4423 47.5202C63.3399 47.7704 60.2531 50.2863 58.6614 53.8355C56.3574 58.5977 49.195 55.562 50.4979 51.615C50.697 50.7356 54.0534 39.3376 67.929 38.6701C78.9037 38.1438 87.8951 47.4948 88.3829 57.0832C88.8642 66.6715 82.5232 73.0251 74.8861 76.0351ZM69.0714 91.2134H70.3292C72.8386 91.2134 74.8861 93.2095 74.8861 95.6545C74.8861 98.0999 72.8389 100.096 70.3292 100.096H69.0714C66.5621 100.096 64.5146 98.0996 64.5146 95.6545C64.5146 93.2095 66.5621 91.2134 69.0714 91.2134Z" fill="#F8F8F8"/>
<circle cx="70" cy="70" r="68" stroke="white" stroke-width="4"/>
</svg>
