<svg width="64" height="63" viewBox="0 0 64 63" fill="none" xmlns="http://www.w3.org/2000/svg">
<g clip-path="url(#clip0)">
<path d="M32 62.4301C49.6731 62.4301 64 48.5486 64 31.4249C64 14.3012 49.6731 0.419678 32 0.419678C14.3269 0.419678 0 14.3012 0 31.4249C0 48.5486 14.3269 62.4301 32 62.4301Z" fill="#98E0E4"/>
<path d="M64 31.425C64 29.5789 63.8326 27.7707 63.5133 26.0133L54.3434 17.0429L51.1928 14.0757L47.7474 20.69L40.9209 14.0757L37.319 20.5382L30.6491 14.0757L28.8623 22.2969L20.3773 14.0757L10.5305 46.7473L26.1886 61.9186C28.0734 62.2537 30.0154 62.4302 32 62.4302C49.6731 62.4302 64 48.5487 64 31.425Z" fill="#75BFCA"/>
<path d="M16 15.5994H48V47.2505H16V15.5994Z" fill="#DAF2F5"/>
<path d="M31.9493 15.5994H48V47.2505H31.9493V15.5994Z" fill="#DCF4F5"/>
<path d="M53.2921 25.2479H50.7079C49.9027 25.2479 49.25 24.6155 49.25 23.8354V18.021C49.25 17.2409 49.9027 16.6084 50.7079 16.6084H53.2921C54.0973 16.6084 54.75 17.2409 54.75 18.021V23.8354C54.75 24.6155 54.0973 25.2479 53.2921 25.2479Z" fill="#C62D54"/>
<path d="M14.2296 47.2504H11.6454C10.8403 47.2504 10.1875 46.6179 10.1875 45.8378V40.0234C10.1875 39.2433 10.8403 38.6108 11.6454 38.6108H14.2296C15.0347 38.6108 15.6875 39.2433 15.6875 40.0234V45.8378C15.6875 46.6179 15.0347 47.2504 14.2296 47.2504Z" fill="#C62D54"/>
<path d="M18.9947 49.4122H14.1897C13.2058 49.4122 12.4083 48.6395 12.4083 47.6862V15.1637C12.4083 14.2105 13.2058 13.4377 14.1897 13.4377H18.9947C19.9786 13.4377 20.7761 14.2105 20.7761 15.1637V47.6862C20.7761 48.6394 19.9786 49.4122 18.9947 49.4122Z" fill="white"/>
<path d="M29.2666 49.4122H24.4615C23.4777 49.4122 22.6802 48.6395 22.6802 47.6862V15.1637C22.6802 14.2105 23.4777 13.4377 24.4615 13.4377H29.2666C30.2504 13.4377 31.0479 14.2105 31.0479 15.1637V47.6862C31.0479 48.6394 30.2503 49.4122 29.2666 49.4122Z" fill="white"/>
<path d="M39.5384 49.4122H34.7334C33.7495 49.4122 32.952 48.6395 32.952 47.6862V15.1637C32.952 14.2105 33.7495 13.4377 34.7334 13.4377H39.5384C40.5223 13.4377 41.3198 14.2105 41.3198 15.1637V47.6862C41.3198 48.6394 40.5223 49.4122 39.5384 49.4122Z" fill="#ECF7F8"/>
<path d="M49.8101 49.4122H45.0051C44.0213 49.4122 43.2238 48.6395 43.2238 47.6862V15.1637C43.2238 14.2105 44.0213 13.4377 45.0051 13.4377H49.8101C50.794 13.4377 51.5915 14.2105 51.5915 15.1637V47.6862C51.5916 48.6394 50.794 49.4122 49.8101 49.4122Z" fill="#ECF7F8"/>
</g>
<defs>
<clipPath id="clip0">
<rect width="64" height="62.0104" fill="white" transform="translate(0 0.419678)"/>
</clipPath>
</defs>
</svg>
