<svg width="48" height="48" viewBox="0 0 48 48" fill="none" xmlns="http://www.w3.org/2000/svg">
<g clip-path="url(#clip0)">
<path d="M47.0781 17.3911C44.208 7.35019 34.9626 0 24 0C10.7452 0 0 10.7452 0 24C0 34.9626 7.35019 44.208 17.3911 47.0781L47.0781 17.3911Z" fill="#98E0E4"/>
<path d="M47.9999 24C47.9999 21.7077 47.678 19.4907 47.0779 17.3911L36.4695 6.78262L35.2695 7.66959L32.2955 4.69565L11.5303 41.2174L17.391 47.0781C19.4906 47.6781 21.7076 48 23.9999 48C37.2547 48 47.9999 37.2547 47.9999 24Z" fill="#75BFCA"/>
<path d="M23.9998 4.69565L25.5798 13.0434H15.7041V4.69565H23.9998Z" fill="#DAF2F5"/>
<path d="M32.2957 4.69565H24V13.0434H32.2957V4.69565Z" fill="#75BFCA"/>
<path d="M23.9999 6.78263L26.3748 33.8087L11.5303 31.7217V6.78263H23.9999Z" fill="white"/>
<path d="M36.4696 6.78263V31.7217L24 33.8087V6.78263H36.4696Z" fill="#DAF2F5"/>
<path d="M36.4696 31.7217V41.2174H28.8523L21.9131 36.4696L24.0001 31.7217H36.4696Z" fill="#C62D54"/>
<path d="M23.9999 31.7217V36.4696L19.1476 41.2174H11.5303V31.7217H23.9999Z" fill="#FF7094"/>
<path d="M21.2349 14.4H19.1479L18.1045 11.6347L19.1479 8.86959H21.2349L22.2784 11.6347L21.2349 14.4Z" fill="#DAF2F5"/>
<path d="M19.1476 8.86959H13.6172V14.4H19.1476V8.86959Z" fill="#98E0E4"/>
<path d="M28.8522 14.4H26.7652L25.7217 11.6347L26.7652 8.86959H28.8522L29.8956 11.6347L28.8522 14.4Z" fill="#98E0E4"/>
<path d="M23.9997 8.86959L22.8047 11.6347L23.9997 14.4H26.765V8.86959H23.9997Z" fill="#75BFCA"/>
<path d="M23.9996 8.86959H21.2344V14.4H23.9996V8.86959Z" fill="#98E0E4"/>
<path d="M34.3829 8.86959H28.8525V14.4H34.3829V8.86959Z" fill="#75BFCA"/>
<path d="M21.2349 22.0174H19.1479L18.1045 19.2522L19.1479 16.487H21.2349L22.2784 19.2522L21.2349 22.0174Z" fill="#DAF2F5"/>
<path d="M19.1476 16.487H13.6172V22.0174H19.1476V16.487Z" fill="#98E0E4"/>
<path d="M28.8522 22.0174H26.7652L25.7217 19.2522L26.7652 16.487H28.8522L29.8956 19.2522L28.8522 22.0174Z" fill="#98E0E4"/>
<path d="M23.9997 16.487L22.8047 19.2522L23.9997 22.0174H26.765V16.487H23.9997Z" fill="#75BFCA"/>
<path d="M23.9996 16.487H21.2344V22.0174H23.9996V16.487Z" fill="#98E0E4"/>
<path d="M34.3829 16.487H28.8525V22.0174H34.3829V16.487Z" fill="#75BFCA"/>
<path d="M21.2349 29.6348H19.1479L18.1045 26.8696L19.1479 24.1043H21.2349L22.2784 26.8696L21.2349 29.6348Z" fill="#DAF2F5"/>
<path d="M19.1476 24.1043H13.6172V29.6348H19.1476V24.1043Z" fill="#98E0E4"/>
<path d="M28.8522 29.6348H26.7652L25.7217 26.8696L26.7652 24.1043H28.8522L29.8956 26.8696L28.8522 29.6348Z" fill="#98E0E4"/>
<path d="M23.9997 24.1043L22.8047 26.8696L23.9997 29.6348H26.765V24.1043H23.9997Z" fill="#75BFCA"/>
<path d="M23.9996 24.1043H21.2344V29.6348H23.9996V24.1043Z" fill="#98E0E4"/>
<path d="M28.8526 33.8087H26.7657L24.6787 37.513L26.7657 41.2174H28.8526V33.8087Z" fill="#DAF2F5"/>
<path d="M23.9997 33.8087L22.8047 37.513L23.9997 41.2174H26.765V33.8087H23.9997Z" fill="#7DDCD4"/>
<path d="M21.2344 33.8087H19.1475V41.2174H21.2344L23.3214 37.513L21.2344 33.8087Z" fill="#DAF2F5"/>
<path d="M23.9996 33.8087H21.2344V41.2174H23.9996V33.8087Z" fill="#98E0E4"/>
<path d="M34.3829 24.1043H28.8525V29.6348H34.3829V24.1043Z" fill="#75BFCA"/>
<circle cx="24" cy="24" r="22.5" stroke="white" stroke-width="3"/>
</g>
<defs>
<clipPath id="clip0">
<rect width="48" height="48" fill="white"/>
</clipPath>
</defs>
</svg>
