<svg width="64" height="64" viewBox="0 0 64 64" fill="none" xmlns="http://www.w3.org/2000/svg">
<g clip-path="url(#clip0)">
<path d="M32 64C49.6731 64 64 49.6731 64 32C64 14.3269 49.6731 0 32 0C14.3269 0 0 14.3269 0 32C0 49.6731 14.3269 64 32 64Z" fill="#98E0E4"/>
<path d="M63.9395 33.9434L54.2284 24.2322L31.9999 7.37012L9.77148 24.2322L12.8301 28.2644L16.0736 31.5785V46.3976H11.9166V51.0837L23.7602 62.9274C26.3895 63.626 29.1507 64.0004 31.9999 64.0004C49.0204 64.0004 62.9347 50.7115 63.9395 33.9434Z" fill="#75BFCA"/>
<path d="M47.9264 46.8544H16.0736V25.39L32 13.3086L47.9264 25.39V46.8544Z" fill="white"/>
<path d="M47.9263 25.3889V46.8539H32V13.3076L47.9263 25.3889Z" fill="#DAF2F5"/>
<path d="M36.8901 32.0156H27.1113V46.8531H36.8901V32.0156Z" fill="#FCCDD9"/>
<path d="M36.8887 32.0156H32V46.8544H36.8887V32.0156Z" fill="#C62D54"/>
<path d="M52.0823 46.3975H11.916V51.0836H52.0823V46.3975Z" fill="#BFE9EF"/>
<path d="M52.0838 46.3975H32V51.0837H52.0838V46.3975Z" fill="#98E0E4"/>
<path d="M51.1696 28.2644L31.9999 13.7225L12.8301 28.2644L9.77148 24.2322L31.9999 7.37012L54.2282 24.2322L51.1696 28.2644Z" fill="#EFA2B6"/>
<path d="M54.2287 24.2326L51.17 28.2639L47.9262 25.8039L32 13.7226V7.37012L54.2287 24.2326Z" fill="#C62D54"/>
</g>
<defs>
<clipPath id="clip0">
<rect width="64" height="64" fill="white"/>
</clipPath>
</defs>
</svg>
