<svg width="64" height="64" viewBox="0 0 64 64" fill="none" xmlns="http://www.w3.org/2000/svg">
<path d="M32 64C49.6731 64 64 49.6731 64 32C64 14.3269 49.6731 0 32 0C14.3269 0 0 14.3269 0 32C0 49.6731 14.3269 64 32 64Z" fill="#98E0E4"/>
<path d="M64.0001 32.0003C64.0001 29.133 63.6208 26.3549 62.9136 23.7106L51.6641 12.4613C51.6641 12.4613 43.3751 9.62526 40.1251 15.7503C36.8751 21.8753 12.0444 52.0809 12.0444 52.0809L22.5426 62.579C25.5317 63.5024 28.7077 64.0003 32.0001 64.0003C49.6732 64.0003 64.0001 49.6734 64.0001 32.0003Z" fill="#75BFCA"/>
<path d="M12.1882 44.3663L12.0444 52.0811L19.7593 51.9374L19.5117 47.5848L23.8642 47.8324L23.6167 43.4798L27.9692 43.7274L27.7217 39.3748L32.0742 39.6224L38.0639 33.6326L30.4929 26.0615L12.1882 44.3663Z" fill="#EFA2B6"/>
<path d="M38.0647 33.6324L32.0745 39.6224L27.7223 39.3749L27.9698 43.7272L23.6175 43.4797L23.865 47.8319L19.5119 47.5853L19.7594 51.9376L12.0449 52.0808L34.2789 29.8467L38.0647 33.6324Z" fill="#ECF7F8"/>
<path d="M51.6643 12.4616C46.0072 6.80447 36.835 6.80447 31.1779 12.4616C25.5208 18.1187 25.5208 27.2909 31.1779 32.948C36.835 38.6051 46.0072 38.6051 51.6643 32.948C57.3214 27.2909 57.3214 18.1187 51.6643 12.4616ZM42.9225 21.2033C41.4452 19.726 41.4452 17.3306 42.9225 15.8532C44.3999 14.3758 46.7953 14.3758 48.2727 15.8532C49.75 17.3306 49.75 19.726 48.2727 21.2033C46.7953 22.6807 44.3999 22.6807 42.9225 21.2033Z" fill="#DAF2F5"/>
<path d="M51.664 12.4619L48.2725 15.8534C49.7495 17.3304 49.7495 19.7257 48.2725 21.2027C46.7946 22.6805 44.3993 22.6805 42.9223 21.2035L31.1782 32.9477C32.5155 34.2849 34.0491 35.3059 35.6868 36.0103C40.9751 38.288 47.3443 37.268 51.664 32.9485C57.3217 27.2909 57.3208 18.1188 51.664 12.4619Z" fill="#ECF7F8"/>
</svg>
