<svg width="64" height="64" viewBox="0 0 64 64" fill="none" xmlns="http://www.w3.org/2000/svg">
<path d="M32 64C49.6731 64 64 49.6731 64 32C64 14.3269 49.6731 0 32 0C14.3269 0 0 14.3269 0 32C0 49.6731 14.3269 64 32 64Z" fill="#98E0E4"/>
<path d="M64.0001 32C64.0001 29.1328 63.6208 26.3546 62.9136 23.7104L51.6641 12.461C51.6641 12.461 43.3751 9.62501 40.1251 15.75C36.8751 21.875 12.0444 52.0806 12.0444 52.0806L22.5426 62.5788C25.5317 63.5021 28.7077 64 32.0001 64C49.6732 64 64.0001 49.6731 64.0001 32Z" fill="#75BFCA"/>
<path d="M12.1882 44.3655L12.0444 52.0804L19.7593 51.9367L19.5117 47.584L23.8642 47.8317L23.6167 43.479L27.9692 43.7267L27.7217 39.374L32.0742 39.6217L38.0639 33.6319L30.4929 26.0608L12.1882 44.3655Z" fill="#EFA2B6"/>
<path d="M38.0644 33.6324L32.0743 39.6224L27.7221 39.3749L27.9696 43.7272L23.6173 43.4797L23.8648 47.8319L19.5117 47.5853L19.7592 51.9376L12.0447 52.0808L34.2787 29.8467L38.0644 33.6324Z" fill="#ECF7F8"/>
<path d="M51.6643 12.4611C46.0072 6.80398 36.835 6.80398 31.1779 12.4611C25.5208 18.1182 25.5208 27.2904 31.1779 32.9475C36.835 38.6046 46.0072 38.6046 51.6643 32.9475C57.3214 27.2904 57.3214 18.1182 51.6643 12.4611ZM42.9225 21.2029C41.4452 19.7255 41.4452 17.3301 42.9225 15.8527C44.3999 14.3754 46.7953 14.3754 48.2727 15.8527C49.75 17.3301 49.75 19.7255 48.2727 21.2029C46.7953 22.6802 44.3999 22.6802 42.9225 21.2029Z" fill="#DAF2F5"/>
<path d="M51.664 12.4617L48.2725 15.8532C49.7495 17.3302 49.7495 19.7254 48.2725 21.2024C46.7946 22.6803 44.3993 22.6803 42.9223 21.2033L31.1782 32.9474C32.5155 34.2847 34.0491 35.3057 35.6868 36.01C40.9751 38.2878 47.3443 37.2678 51.664 32.9483C57.3217 27.2907 57.3208 18.1185 51.664 12.4617Z" fill="#ECF7F8"/>
</svg>
