<svg width="64" height="64" viewBox="0 0 64 64" fill="none" xmlns="http://www.w3.org/2000/svg">
<g clip-path="url(#clip0)">
<path d="M32 64C49.6731 64 64 49.6731 64 32C64 14.3269 49.6731 0 32 0C14.3269 0 0 14.3269 0 32C0 49.6731 14.3269 64 32 64Z" fill="#98E0E4"/>
<path d="M64 32C64 29.6 63.7338 27.2624 63.2329 25.0133L47.9696 9.75H28.7323L16.0304 31.7453L24.4023 40.1688L19.7469 54.6196L28.9849 63.8576C29.9778 63.9504 30.983 64 32 64C49.6731 64 64 49.6731 64 32Z" fill="#75BFCA"/>
<path d="M47.9697 9.75H28.7323L16.0304 31.7453H27.116L19.747 54.6196L44.0208 27.4424H35.9683L47.9697 9.75Z" fill="#ECF7F8"/>
<path d="M35.9688 27.4425H44.0213L32 40.9012V9.75H47.97L35.9688 27.4425Z" fill="#EFA2B6"/>
</g>
<defs>
<clipPath id="clip0">
<rect width="64" height="64" fill="white"/>
</clipPath>
</defs>
</svg>
