<svg width="64" height="64" viewBox="0 0 64 64" fill="none" xmlns="http://www.w3.org/2000/svg">
<path d="M32 64C14.3271 64 0 49.6729 0 32C0 14.3271 14.3271 0 32 0C49.6729 0 64 14.3271 64 32C64 49.6729 49.6729 64 32 64Z" fill="#98E0E4"/>
<path d="M13.1639 45.7213C13.0903 45.8286 13.0372 45.9506 13.0372 46.0914C13.0372 46.4408 13.3066 46.7173 13.647 46.7509C13.6541 46.8239 13.6664 46.8943 13.6947 46.9583C13.7561 48.5052 14.4711 49.8829 15.5724 50.8272C15.7558 51.0423 28.4081 63.6733 28.558 63.8128C29.689 63.9336 30.836 63.9994 31.9986 63.9994C48.8118 63.9994 62.5861 51.0306 63.8881 34.5519C63.7738 34.4104 42.8114 13.4164 42.5401 13.3034C42.3631 12.9004 41.9744 12.6117 41.506 12.6117C41.1269 12.6117 40.793 12.7983 40.585 13.0826H40.034C39.9094 12.8578 39.1504 12.0924 38.885 11.9729C38.6978 11.5583 38.283 11.2683 37.798 11.2683C37.1385 11.2683 36.6044 11.8024 36.6044 12.4619V13.0819H35.0116C34.8036 12.7977 34.4697 12.6111 34.0906 12.6111C33.4583 12.6111 32.9461 13.1233 32.9461 13.7556C32.9461 14.2264 33.231 14.6307 33.6379 14.8058C33.7535 15.0732 36.3474 17.6646 36.6045 17.7827V18.1773H36.6123C35.8043 18.5344 35.1957 19.2456 34.9659 20.1131H33.231C33.1592 20.0776 33.0811 20.0582 32.9979 20.0498C32.9642 19.7088 32.6865 19.4394 32.3371 19.4394C31.9651 19.4394 31.6635 19.7404 31.6635 20.1131V20.1828C29.1355 20.5729 27.1855 22.7206 27.1047 25.3371H27.0711C26.6985 25.3371 26.3975 25.6387 26.3975 26.0107C26.3975 26.3601 26.6669 26.6384 27.0079 26.6714C27.0175 26.7709 27.0486 26.8607 27.0964 26.9427V41.4274C26.9414 41.2557 16.6516 30.9679 16.4379 30.7838C15.5408 29.7291 14.2451 29.0277 12.7841 28.9062C12.6944 28.8468 12.5942 28.8073 12.4812 28.7964C12.4476 28.4554 12.1699 28.1861 11.8205 28.1861C11.4485 28.1861 11.1469 28.4871 11.1469 28.8597V28.8764H0.15375C0.094375 29.4919 0.056875 30.1139 0.031625 30.7386C0.0155 31.1578 0 31.5771 0 32.0001C0 32.3082 0.014875 32.6123 0.02325 32.9186C0.02325 32.9186 13.1612 45.6381 13.1639 45.7213Z" fill="#75BFCA"/>
<path d="M43.2863 20.115H32.4856C29.5139 20.115 27.0964 22.5326 27.0964 25.5042V46.7431C27.0964 47.4736 26.4795 48.0905 25.749 48.0905H19.0737C18.3433 48.0905 17.7264 47.4736 17.7264 46.7431V34.2659C17.7264 31.2941 15.3088 28.8766 12.3371 28.8766H0.15375C0.05425 29.9047 0 30.9459 0 32C0 32.3081 0.014875 32.6122 0.02325 32.9185H12.3371C13.0676 32.9185 13.6845 33.5354 13.6845 34.2659V46.7431C13.6845 49.7149 16.1021 52.1325 19.0737 52.1325H25.749C28.7208 52.1325 31.1383 49.7149 31.1383 46.7431V25.5049C31.1383 24.7744 31.7551 24.1575 32.4856 24.1575H43.2863C44.0168 24.1575 44.6336 24.7744 44.6336 25.5049V30.8974H48.6756V25.5049C48.6763 22.5331 46.258 20.115 43.2863 20.115Z" fill="white"/>
<path d="M46.7334 30.8974C46.7417 30.0688 46.7373 29.2782 46.7373 28.6317V25.7207C46.7373 23.8683 45.2214 22.3523 43.3689 22.3523H32.5115C30.6591 22.3523 29.1431 23.8682 29.1431 25.7207V46.7192C29.1431 48.5715 27.6273 50.0875 25.7747 50.0875H18.9096C17.0572 50.0875 15.5413 48.5717 15.5413 46.7192V34.1107C15.5413 32.2583 14.0254 30.7423 12.1729 30.7423H0.031625C0.014875 31.1603 0 31.5782 0 31.9999C0 32.308 0.014875 32.6122 0.02325 32.9184H12.3371C13.0676 32.9184 13.6845 33.5353 13.6845 34.2658V46.743C13.6845 49.7148 16.1021 52.1324 19.0737 52.1324H25.749C28.7208 52.1324 31.1383 49.7148 31.1383 46.743V25.5048C31.1383 24.7743 31.7551 24.1574 32.4856 24.1574H43.2863C44.0168 24.1574 44.6336 24.7743 44.6336 25.5048V30.8973L46.7334 30.8974Z" fill="#DCF4F5"/>
<path d="M43.2793 24.8307C42.9073 24.8307 42.6057 24.529 42.6057 24.157V20.115C42.6057 19.7424 42.9073 19.4414 43.2793 19.4414C43.6513 19.4414 43.953 19.743 43.953 20.115V24.157C43.953 24.5297 43.6513 24.8307 43.2793 24.8307Z" fill="white"/>
<path d="M43.2793 19.4412V24.8304C43.6513 24.8304 43.9529 24.5288 43.9529 24.1568V20.1149C43.9529 19.7428 43.6513 19.4412 43.2793 19.4412Z" fill="#CEEAF2"/>
<path d="M32.3372 24.8307C31.9652 24.8307 31.6636 24.529 31.6636 24.157V20.115C31.6636 19.7424 31.9652 19.4414 32.3372 19.4414C32.7092 19.4414 33.0108 19.743 33.0108 20.115V24.157C33.0109 24.5297 32.7092 24.8307 32.3372 24.8307Z" fill="white"/>
<path d="M32.3372 19.4412V24.8304C32.7092 24.8304 33.0108 24.5288 33.0108 24.1568V20.1149C33.0109 19.7428 32.7092 19.4412 32.3372 19.4412Z" fill="#CEEAF2"/>
<path d="M25.3486 52.7704C24.9766 52.7704 24.6749 52.4687 24.6749 52.0967V48.0547C24.6749 47.6821 24.9766 47.3811 25.3486 47.3811C25.7206 47.3811 26.0222 47.6821 26.0222 48.0547V52.0967C26.0222 52.4695 25.7206 52.7704 25.3486 52.7704Z" fill="white"/>
<path d="M25.3486 47.3811V52.7705C25.7206 52.7705 26.0223 52.4689 26.0223 52.0969V48.0549C26.0223 47.6821 25.7206 47.3811 25.3486 47.3811Z" fill="#CEEAF2"/>
<path d="M11.8205 33.5753C11.4485 33.5753 11.1469 33.2736 11.1469 32.9016V28.8597C11.1469 28.487 11.4485 28.186 11.8205 28.186C12.1925 28.186 12.4941 28.4877 12.4941 28.8597V32.9016C12.4941 33.2743 12.1925 33.5753 11.8205 33.5753Z" fill="white"/>
<path d="M11.8206 28.186V33.5754C12.1926 33.5754 12.4942 33.2738 12.4942 32.9018V28.8598C12.4942 28.487 12.1926 28.186 11.8206 28.186Z" fill="#CEEAF2"/>
<path d="M19.1009 52.7704C18.7289 52.7704 18.4272 52.4687 18.4272 52.0967V48.0547C18.4272 47.6821 18.7289 47.3811 19.1009 47.3811C19.4729 47.3811 19.7745 47.6821 19.7745 48.0547V52.0967C19.7746 52.4695 19.473 52.7704 19.1009 52.7704Z" fill="white"/>
<path d="M19.1008 47.3811V52.7705C19.4728 52.7705 19.7745 52.4689 19.7745 52.0969V48.0549C19.7746 47.6821 19.473 47.3811 19.1008 47.3811Z" fill="#CEEAF2"/>
<path d="M26.3976 26.0127C26.3976 25.6407 26.6992 25.3391 27.0712 25.3391H31.1132C31.4858 25.3391 31.7868 25.6407 31.7868 26.0127C31.7868 26.3847 31.4852 26.6864 31.1132 26.6864H27.0713C26.6986 26.6864 26.3976 26.3847 26.3976 26.0127Z" fill="white"/>
<path d="M31.787 26.0125H26.3976C26.3976 26.3845 26.6992 26.6861 27.0712 26.6861H31.1132C31.4853 26.6861 31.787 26.3845 31.787 26.0125Z" fill="#CEEAF2"/>
<path d="M44.0438 30.8194C44.0438 30.4474 44.3454 30.1458 44.7174 30.1458H48.7594C49.1321 30.1458 49.4331 30.4474 49.4331 30.8194C49.4331 31.1914 49.1314 31.493 48.7594 31.493H44.7174C44.3454 31.493 44.0438 31.1914 44.0438 30.8194Z" fill="white"/>
<path d="M49.4332 30.8193H44.0438C44.0438 31.1913 44.3454 31.493 44.7174 31.493H48.7594C49.1322 31.493 49.4332 31.1913 49.4332 30.8193Z" fill="#CEEAF2"/>
<path d="M26.3976 46.0913C26.3976 45.7193 26.6992 45.4177 27.0712 45.4177H31.1132C31.4858 45.4177 31.7868 45.7193 31.7868 46.0913C31.7868 46.4633 31.4852 46.765 31.1132 46.765H27.0713C26.6986 46.765 26.3976 46.4633 26.3976 46.0913Z" fill="white"/>
<path d="M31.787 46.0913H26.3976C26.3976 46.4633 26.6992 46.7649 27.0712 46.7649H31.1132C31.4853 46.7649 31.787 46.4633 31.787 46.0913Z" fill="#CEEAF2"/>
<path d="M13.0372 46.0913C13.0372 45.7193 13.3389 45.4177 13.7109 45.4177H17.7529C18.1255 45.4177 18.4265 45.7193 18.4265 46.0913C18.4265 46.4633 18.1248 46.765 17.7529 46.765H13.7109C13.3389 46.765 13.0372 46.4633 13.0372 46.0913Z" fill="white"/>
<path d="M18.4273 46.0913H13.0381C13.0381 46.4633 13.3397 46.7649 13.7117 46.7649H17.7537C18.1257 46.7649 18.4273 46.4633 18.4273 46.0913Z" fill="#CEEAF2"/>
<path d="M13.0372 34.513C13.0372 34.141 13.3389 33.8394 13.7109 33.8394H17.7529C18.1255 33.8394 18.4265 34.141 18.4265 34.513C18.4265 34.885 18.1248 35.1866 17.7529 35.1866H13.7109C13.3389 35.1867 13.0372 34.8851 13.0372 34.513Z" fill="white"/>
<path d="M18.4273 34.5132H13.0381C13.0381 34.8852 13.3397 35.1868 13.7117 35.1868H17.7537C18.1257 35.1869 18.4273 34.8853 18.4273 34.5132Z" fill="#CEEAF2"/>
<path d="M40.7422 23.8374C40.7422 25.4624 39.4252 26.7794 37.8002 26.7794C36.1752 26.7794 34.8582 25.4624 34.8582 23.8374V20.8683C34.8582 19.2433 36.1758 17.9263 37.8002 17.9263C39.4252 17.9263 40.7422 19.2439 40.7422 20.8683V23.8374Z" fill="white"/>
<path d="M34.8574 22.3523V23.8365C34.8574 25.4615 36.175 26.7792 37.7994 26.7792C39.4238 26.7792 40.742 25.4615 40.742 23.8365V22.3523H34.8574Z" fill="#ECF7F8"/>
<path d="M40.7247 24.1571C40.6769 24.6008 40.5297 25.0154 40.3068 25.3778C40.5296 25.0154 40.6768 24.6014 40.7247 24.1571ZM39.6951 18.6172C40.1511 19.0014 40.4882 19.5214 40.6452 20.1151C40.4882 19.5214 40.1504 19.0016 39.6951 18.6172Z" fill="#55A4AD"/>
<path d="M40.6447 20.115C40.7079 20.3552 40.7415 20.6079 40.7415 20.8681V22.3524V20.8681C40.7422 20.6077 40.7079 20.3552 40.6447 20.115Z" fill="#E6F4F8"/>
<path d="M40.7421 22.3523V23.8365C40.7421 23.945 40.7364 24.0517 40.7247 24.1569C40.7364 24.0517 40.7421 23.945 40.7421 23.8365V22.3523Z" fill="#BAE0EC"/>
<path d="M38.9938 18.178V18.1792H37.8002V22.3524H40.7428V20.8681C40.7428 20.6079 40.7092 20.3559 40.6459 20.115C40.4889 19.5214 40.1518 19.0015 39.6958 18.6171C39.4847 18.4395 39.2482 18.291 38.9938 18.178Z" fill="#E6F4F8"/>
<path d="M40.7422 22.3523H37.7996V26.7792C38.8594 26.7792 39.7889 26.2185 40.3069 25.3775C40.5304 25.0152 40.6771 24.6012 40.7248 24.1568C40.7364 24.0515 40.7422 23.9449 40.7422 23.8364V22.3523Z" fill="#BBEAED"/>
<path d="M37.7996 11.2695C37.1401 11.2695 36.606 11.8037 36.606 12.4632V18.1793H38.9938V12.4632C38.9938 11.8037 38.459 11.2695 37.7996 11.2695Z" fill="#BFE9EF"/>
<path d="M37.7996 11.2695V18.1793H38.9932V12.4632C38.9938 11.8037 38.4589 11.2695 37.7996 11.2695Z" fill="#BFE9EF"/>
<path d="M41.4816 14.4312H34.1171C33.7451 14.4312 33.4435 14.1296 33.4435 13.7576C33.4435 13.3856 33.7451 13.084 34.1171 13.084H41.4816C41.8536 13.084 42.1552 13.3856 42.1552 13.7576C42.156 14.1296 41.8537 14.4312 41.4816 14.4312Z" fill="#EFA2B6"/>
<path d="M34.092 14.902C34.7241 14.902 35.2365 14.3896 35.2365 13.7575C35.2365 13.1254 34.7241 12.613 34.092 12.613C33.4599 12.613 32.9475 13.1254 32.9475 13.7575C32.9475 14.3896 33.4599 14.902 34.092 14.902Z" fill="#EFA2B6"/>
<path d="M34.092 12.613V14.902C34.7244 14.902 35.2365 14.3898 35.2365 13.7575C35.2365 13.1252 34.7238 12.613 34.092 12.613Z" fill="#C62D54"/>
<path d="M37.7996 14.4312H36.606V16.0826H37.7996V14.4312Z" fill="#9CD9E2"/>
<path d="M38.9938 14.4312H37.7996V16.0826H38.9938V14.4312Z" fill="#9CD9E2"/>
<path d="M37.7975 14.902C38.4295 14.902 38.942 14.3896 38.942 13.7575C38.942 13.1254 38.4295 12.613 37.7975 12.613C37.1654 12.613 36.653 13.1254 36.653 13.7575C36.653 14.3896 37.1654 14.902 37.7975 14.902Z" fill="#EFA2B6"/>
<path d="M37.7996 12.613V14.902C38.4319 14.902 38.9441 14.3898 38.9441 13.7575C38.9441 13.1252 38.4318 12.613 37.7996 12.613Z" fill="#C62D54"/>
<path d="M41.5049 14.902C42.1369 14.902 42.6494 14.3896 42.6494 13.7575C42.6494 13.1254 42.1369 12.613 41.5049 12.613C40.8728 12.613 40.3604 13.1254 40.3604 13.7575C40.3604 14.3896 40.8728 14.902 41.5049 14.902Z" fill="#EFA2B6"/>
<path d="M41.5074 12.613V14.902C42.1398 14.902 42.6519 14.3898 42.6519 13.7575C42.6513 13.1252 42.1391 12.613 41.5074 12.613Z" fill="#C62D54"/>
<path d="M49.0851 38.4705C49.0851 39.7668 48.0342 40.817 46.7386 40.817C45.443 40.817 44.3921 39.7661 44.3921 38.4705C44.3921 37.1749 46.7386 32.5935 46.7386 32.5935C46.7386 32.5935 49.0851 37.1749 49.0851 38.4705Z" fill="#BFE9EF"/>
<path d="M46.7386 32.5935V40.817C48.0349 40.817 49.0851 39.7661 49.0851 38.4705C49.0851 37.1748 46.7386 32.5935 46.7386 32.5935Z" fill="#9CD9E2"/>
<path d="M45.5739 37.3628C44.9364 37.3628 44.4197 37.8795 44.4197 38.517C44.4197 39.1545 44.9364 39.6713 45.5739 39.6713C46.2114 39.6713 46.7282 39.1545 46.7282 38.517C46.7288 37.8794 46.2114 37.3628 45.5739 37.3628ZM47.3243 39.5272C46.9956 39.5272 46.7288 39.7939 46.7288 40.1227C46.7288 40.4514 46.9956 40.7182 47.3243 40.7182C47.6531 40.7182 47.9198 40.4514 47.9198 40.1227C47.9198 39.7939 47.6531 39.5272 47.3243 39.5272Z" fill="#75BFCA"/>
</svg>
