<svg width="64" height="64" viewBox="0 0 64 64" fill="none" xmlns="http://www.w3.org/2000/svg">
<path d="M32 64C49.6731 64 64 49.6731 64 32C64 14.3269 49.6731 0 32 0C14.3269 0 0 14.3269 0 32C0 49.6731 14.3269 64 32 64Z" fill="#98E0E4"/>
<path d="M63.9272 34.1396L54.3641 24.5765L54.2211 26.5564L49.2802 21.6155L45.8768 28.77L30.1996 13.0928L19.8661 23.1251L32.6548 35.9139L8.84371 37.3424L12.4387 40.9374L7.46533 42.2615L12.993 47.7891L12.2683 48.04L27.9767 63.7484C29.2945 63.9136 30.6372 63.9995 32.0001 63.9995C48.9538 63.9995 62.8257 50.8146 63.9272 34.1396Z" fill="#75BFCA"/>
<path d="M37.6366 37.3429H8.84375V32.343H35.8818L49.2803 21.6162L52.4051 25.5193L37.6366 37.3429Z" fill="white"/>
<path d="M52.4047 25.5193L49.2798 21.6162L35.8813 32.343H31.9937V37.3429H37.6362L52.4047 25.5193Z" fill="#ECF7F8"/>
<path d="M39.4292 42.262H7.46484V37.887H37.8831L54.3637 24.5771L57.1125 27.9808L39.4292 42.262Z" fill="#DAF2F5"/>
<path d="M57.1124 27.9808L54.3637 24.5771L37.883 37.887H31.9937V42.262H39.4292L57.1124 27.9808Z" fill="#9CD9E2"/>
<path d="M45.8137 34.1617L47.2339 48.4365L50.3436 48.1271L48.9234 33.8523L45.8137 34.1617Z" fill="#9CD9E2"/>
<path d="M12.2693 48.0413L15.3569 48.5244L16.702 39.9286L13.6144 39.4454L12.2693 48.0413Z" fill="#DAF2F5"/>
<path d="M25.2499 25.5417C29.231 25.5417 32.4583 22.3144 32.4583 18.3334C32.4583 14.3523 29.231 11.125 25.2499 11.125C21.2688 11.125 18.0415 14.3523 18.0415 18.3334C18.0415 22.3144 21.2688 25.5417 25.2499 25.5417Z" fill="#EFA2B6"/>
<path d="M25.2498 11.125C25.191 11.125 25.1328 11.128 25.0742 11.1295V25.5373C25.1327 25.5386 25.191 25.5416 25.2498 25.5416C29.2308 25.5416 32.4582 22.3144 32.4582 18.3333C32.4582 14.3523 29.2308 11.125 25.2498 11.125Z" fill="#C62D54"/>
</svg>
