<svg width="172" height="172" viewBox="0 0 172 172" fill="none" xmlns="http://www.w3.org/2000/svg">
<g clip-path="url(#clip0)">
<path d="M112.077 167.97C115.644 166.84 119.108 165.482 122.453 163.917C140.921 155.26 155.808 140.233 164.281 121.661C169.238 110.796 172 98.721 172 86C172 38.5029 133.497 0 86 0C38.5029 0 0 38.5029 0 86C0 98.4258 2.63632 110.235 7.37881 120.898L112.077 167.97ZM112.077 167.97C108.066 169.252 103.927 170.238 99.679 170.915C99.6619 170.919 99.6409 170.923 99.6225 170.923C97.5387 171.256 95.4351 171.512 93.3053 171.692M112.077 167.97L69.1795 170.353M72.2161 170.898C71.1978 170.732 70.1834 170.554 69.1795 170.353M72.2161 170.898C74.3459 171.242 76.5045 171.509 78.6842 171.692M72.2161 170.898L72.5366 168.924M72.2161 170.898L72.5348 168.923C72.5354 168.923 72.536 168.923 72.5366 168.924M69.1795 170.353C64.8228 169.49 60.5895 168.301 56.5005 166.805L69.1795 170.353ZM78.6842 171.692C79.1408 171.73 79.5975 171.761 80.0568 171.793C80.6709 171.839 81.2864 171.874 81.9005 171.902C83.2587 171.969 84.6234 172 86 172C87.3411 172 88.6744 171.969 90.0011 171.906C90.6506 171.877 91.2963 171.839 91.9393 171.797M78.6842 171.692L78.8503 169.699C79.2901 169.735 79.7327 169.766 80.1936 169.797L80.206 169.798C80.7974 169.842 81.3928 169.877 81.9902 169.904L81.9989 169.904C83.3221 169.969 84.654 170 86 170C87.3098 170 88.6114 169.969 89.9062 169.908L89.9123 169.907C90.542 169.88 91.1715 169.842 91.8053 169.801M78.6842 171.692L99.4707 168.923M91.9393 171.797C92.3959 171.765 92.8513 171.73 93.3053 171.692M91.9393 171.797L91.8089 169.801C91.8077 169.801 91.8065 169.801 91.8053 169.801M91.9393 171.797L91.8017 169.801C91.8029 169.801 91.8041 169.801 91.8053 169.801M93.3053 171.692L93.1371 169.699M93.3053 171.692L93.1383 169.699C93.1379 169.699 93.1375 169.699 93.1371 169.699M93.1371 169.699C95.2183 169.523 97.2725 169.273 99.3066 168.948L99.4636 168.923H99.4707M93.1371 169.699C92.6926 169.736 92.2488 169.77 91.8053 169.801M99.4707 168.923C99.4352 168.928 99.3997 168.934 99.3641 168.94L99.3068 168.949L99.2962 168.951L99.2292 168.966C99.2362 168.964 99.2452 168.962 99.2562 168.96C99.2702 168.957 99.2873 168.954 99.307 168.95C99.3201 168.948 99.3344 168.945 99.3496 168.943C99.3542 168.942 99.3591 168.942 99.3643 168.941C99.4184 168.933 99.509 168.923 99.6225 168.923H99.4707ZM99.4707 168.923C103.582 168.262 107.587 167.305 111.468 166.065L111.473 166.063C114.955 164.96 118.338 163.634 121.605 162.105M99.4707 168.923L121.604 162.106C121.605 162.105 121.605 162.105 121.605 162.105M121.605 162.105C139.643 153.649 154.186 138.97 162.462 120.83C167.302 110.222 170 98.4288 170 86C170 39.6075 132.393 2 86 2C39.6075 2 2 39.6075 2 86C2 98.1404 4.57531 109.673 9.20623 120.085L9.20655 120.086C11.8323 125.996 15.1196 131.543 18.9766 136.639L121.605 162.105ZM72.5366 168.924C71.5351 168.761 70.5456 168.587 69.5717 168.392L69.5683 168.391C65.3129 167.548 61.1793 166.387 57.1877 164.927L57.1851 164.926C54.8718 164.083 52.6068 163.14 50.3927 162.102M72.5366 168.924L50.3927 162.102M50.3927 162.102C49.6394 161.749 48.8908 161.383 48.1502 161.005L48.142 161C46.2312 160.035 44.3633 158.996 42.5394 157.888L42.5374 157.887C33.4 152.354 25.4033 145.125 18.9768 136.639L50.3927 162.102Z" fill="#98E0E4" stroke="white" stroke-width="4"/>
<path d="M69.1796 111.603V170.353C64.8229 169.49 60.5896 168.301 56.5006 166.805C54.1306 165.941 51.8106 164.976 49.543 163.913C48.7714 163.55 48.0024 163.175 47.24 162.785C45.2821 161.796 43.3688 160.732 41.5015 159.598C32.1464 153.933 23.9606 146.533 17.3822 137.846C13.4337 132.63 10.0677 126.95 7.37891 120.898V111.603C7.37891 100.821 14.7013 91.7464 24.6456 89.0891C25.0104 88.9907 25.3752 88.8988 25.7479 88.8227C26.7334 88.6049 27.7477 88.4566 28.7805 88.3726C29.4091 88.324 30.0442 88.2952 30.6859 88.2952H45.8674C47.5628 88.2952 49.2162 88.4749 50.8106 88.8227C50.9012 88.8398 50.993 88.8607 51.0836 88.8817C51.3513 88.9421 51.6216 89.0077 51.8841 89.0786C51.8919 89.0825 51.8985 89.0825 51.9051 89.0851C54.5309 89.7872 56.9704 90.9354 59.1435 92.4445C65.2087 96.6529 69.1796 103.663 69.1796 111.603Z" fill="#75BFCA"/>
<path d="M69.1793 111.603V170.353C64.8226 169.49 60.5893 168.301 56.5003 166.805C54.1304 165.941 51.8103 164.976 49.5427 163.913C48.7711 163.55 48.0021 163.175 47.2397 162.785C45.2818 161.796 43.3686 160.732 41.5012 159.598C32.1461 153.933 23.9603 146.533 17.382 137.846V111.603C17.382 100.821 24.7043 91.7464 34.6486 89.0891C35.0147 88.9907 35.3795 88.8988 35.7509 88.8227C36.7377 88.6049 37.7521 88.4566 38.7835 88.3726C39.4121 88.324 40.0472 88.2952 40.6902 88.2952H45.8671C47.5625 88.2952 49.216 88.4749 50.8104 88.8227C50.9009 88.8398 50.9928 88.8607 51.0833 88.8817C51.351 88.9421 51.6213 89.0077 51.8838 89.0786C51.8917 89.0825 51.8982 89.0825 51.9048 89.0851C54.5306 89.7872 56.9701 90.9354 59.1432 92.4445C65.2084 96.6529 69.1793 103.663 69.1793 111.603Z" fill="#98E0E4"/>
<path d="M51.9628 88.8213L51.9077 89.0851L44.9344 121.517C44.2651 124.634 41.5225 126.894 38.3364 126.896C38.3167 126.896 38.2983 126.896 38.2799 126.896C38.2589 126.896 38.2393 126.896 38.2183 126.896C35.0308 126.894 32.2895 124.634 31.6202 121.517L24.6469 89.0877L24.5918 88.8213H51.9628Z" fill="#F2F0EC"/>
<path d="M38.2773 97.8379L27.7832 103.67L24.5918 88.8214L31.1124 84.9817" fill="#D8D5D0"/>
<path d="M38.2772 97.8379L48.7713 103.67L51.9627 88.8214L45.4421 84.9817" fill="#D8D5D0"/>
<path d="M6.9458 82.6773V47.5246C6.9458 43.9526 7.54156 40.4528 8.71735 37.1223C13.1173 24.6034 24.9972 16.1892 38.2785 16.1892C39.9241 16.1892 41.5657 16.3165 43.1614 16.5685C50.4576 17.7088 57.1527 21.433 62.0067 27.056C66.912 32.7394 69.6139 40.008 69.6139 47.5246V82.6773" fill="#4D5062"/>
<path d="M19.8346 48.8972C19.8346 61.3309 27.1163 75.7158 31.1148 82.6773H6.94434V47.5246C6.94434 43.954 7.54141 40.4542 8.71588 37.1224C13.0896 24.6756 24.8606 16.2864 38.05 16.1919C28.4168 16.432 19.8346 31.8878 19.8346 48.8972Z" fill="#2A2F4F"/>
<path d="M46.5958 79.3167V89.5234C46.5958 93.2594 44.1327 96.418 40.7392 97.4665C39.9623 97.7079 39.1343 97.8378 38.2787 97.8378C33.6858 97.8378 29.9642 94.1163 29.9642 89.5234V79.3167H46.5958Z" fill="#EAB599"/>
<path d="M46.596 88.8765V89.5234C46.596 93.2594 44.1329 96.418 40.7394 97.4665C37.6779 96.5256 35.3762 93.863 34.951 90.606C35.5061 90.6401 36.0652 90.6572 36.6255 90.6572C38.1989 90.6572 39.7421 90.5325 41.2433 90.2858C43.0949 89.9879 44.8848 89.5116 46.596 88.8765Z" fill="#F6CAAE"/>
<path d="M15.4676 62.5905C15.4676 66.4407 12.6554 69.6334 8.97189 70.2253C8.57034 70.2909 8.15567 70.325 7.73312 70.325C3.46173 70.325 0 66.8633 0 62.5905C0 58.3192 3.46173 54.8574 7.73312 54.8574C8.15567 54.8574 8.57034 54.8915 8.97189 54.9572C12.6554 55.549 15.4676 58.7404 15.4676 62.5905Z" fill="#F6CAAE"/>
<path d="M15.4673 62.5907C15.4673 66.4408 12.6551 69.6335 8.97162 70.2254C8.30368 67.7938 7.94543 65.2336 7.94543 62.5907C7.94543 59.9491 8.30368 57.3889 8.97162 54.9573C12.6551 55.5491 15.4673 58.7405 15.4673 62.5907Z" fill="#EAB599"/>
<path d="M10.4979 62.5908C10.4979 64.1182 9.26044 65.3557 7.73297 65.3557C6.20682 65.3557 4.96936 64.1182 4.96936 62.5908C4.96936 61.0646 6.20682 59.8271 7.73297 59.8271C9.26044 59.8271 10.4979 61.0646 10.4979 62.5908Z" fill="#EAB599"/>
<path d="M58.1368 52.7159V79.2996C54.0281 83.2219 48.7594 85.9383 42.8975 86.8831C42.8516 86.891 42.8017 86.8989 42.7558 86.9067C41.2992 87.139 39.8045 87.2545 38.2784 87.2545C22.3883 87.2545 9.50586 74.3721 9.50586 58.482V47.5246C9.50586 46.1218 9.60559 44.7413 9.7998 43.3923C16.6458 48.3159 26.4615 47.8291 32.7157 41.9187C34.7865 39.9621 36.226 37.6328 37.0396 35.1619C37.4923 39.4884 39.4712 43.6994 42.9789 47.0155C47.1545 50.9575 52.6712 52.8589 58.1368 52.7159Z" fill="#EAB599"/>
<path d="M58.1366 52.7159V79.2996C54.028 83.2219 48.7592 85.9383 42.8974 86.8831C42.8515 86.891 42.8016 86.8989 42.7557 86.9067C28.9927 84.756 18.4658 72.8459 18.4658 58.482V47.5246C18.4658 47.2333 18.4711 46.9433 18.4816 46.6546C23.5547 47.1743 28.8248 45.5969 32.7156 41.9174C34.7863 39.9621 36.2259 37.6315 37.0395 35.1619C37.4922 39.4884 39.4711 43.6994 42.9788 47.0155C47.1544 50.9575 52.6711 52.8589 58.1366 52.7159Z" fill="#F6CAAE"/>
<path d="M164.281 110.895V121.661C155.808 140.233 140.921 155.26 122.453 163.917C119.108 165.482 115.644 166.84 112.077 167.97C108.066 169.252 103.927 170.238 99.679 170.915C99.6619 170.919 99.6409 170.923 99.6226 170.923V110.895C99.6226 98.1004 109.476 87.6037 122.015 86.5932C122.675 86.5368 123.338 86.5132 124.008 86.5132H139.889C141.767 86.5132 143.595 86.7192 145.351 87.1234C156.19 89.6009 164.281 99.3077 164.281 110.895Z" fill="white"/>
<path d="M164.281 110.895V121.661C155.808 140.233 140.921 155.26 122.453 163.917C119.108 165.482 115.644 166.84 112.077 167.97V110.895C112.077 97.4298 122.998 86.5132 136.467 86.5132H139.892C153.365 86.5132 164.281 97.4298 164.281 110.895Z" fill="#75BFCA"/>
<path d="M108.083 59.617C108.083 63.6456 105.141 66.9853 101.288 67.6047C100.867 67.6729 100.434 67.7084 99.9913 67.7084C95.5217 67.7084 91.8999 64.0865 91.8999 59.617C91.8999 55.1475 95.5217 51.5256 99.9913 51.5256C100.434 51.5256 100.867 51.5611 101.288 51.6293C105.141 52.25 108.083 55.5897 108.083 59.617Z" fill="#D3A489"/>
<path d="M138.498 95.3091L131.951 105.81L125.404 95.3091" fill="#C62D54"/>
<path d="M140.759 135.472L131.951 146.587L123.142 135.472L131.953 103.078L140.759 135.472Z" fill="#C62D54"/>
<path d="M108.083 59.6171C108.083 63.6457 105.141 66.9854 101.288 67.6048C100.588 65.0603 100.214 62.382 100.214 59.6171C100.214 56.8535 100.588 54.1752 101.288 51.6294C105.141 52.2501 108.083 55.5898 108.083 59.6171Z" fill="#BF8E75"/>
<path d="M102.883 59.617C102.883 61.214 101.588 62.5092 99.9911 62.5092C98.3941 62.5092 97.1002 61.214 97.1002 59.617C97.1002 58.02 98.3941 56.7261 99.9911 56.7261C101.588 56.7261 102.883 58.02 102.883 59.617Z" fill="#BF8E75"/>
<path d="M131.949 96.4942L120.971 102.596L117.631 87.0604L124.452 83.0422" fill="white"/>
<path d="M131.948 96.4942L142.928 102.596L146.268 87.0604L139.445 83.0422" fill="white"/>
<path d="M155.817 59.617C155.817 63.6456 158.759 66.9853 162.612 67.6047C163.033 67.6729 163.467 67.7084 163.909 67.7084C168.378 67.7084 172 64.0865 172 59.617C172 55.1475 168.378 51.5256 163.909 51.5256C163.467 51.5256 163.033 51.5611 162.612 51.6293C158.759 52.25 155.817 55.5897 155.817 59.617Z" fill="#D3A489"/>
<path d="M155.817 59.6171C155.817 63.6457 158.759 66.9854 162.612 67.6048C163.313 65.0603 163.685 62.382 163.685 59.6171C163.685 56.8535 163.313 54.1752 162.612 51.6294C158.759 52.2501 155.817 55.5898 155.817 59.6171Z" fill="#BF8E75"/>
<path d="M166.801 59.6172C166.801 61.2142 165.506 62.5094 163.909 62.5094C162.312 62.5094 161.016 61.2142 161.016 59.6172C161.016 58.0202 162.312 56.7263 163.909 56.7263C165.506 56.7263 166.801 58.0202 166.801 59.6172Z" fill="#BF8E75"/>
<path d="M162.056 55.3168C162.056 70.2976 151.111 82.7259 136.782 85.0329C135.211 85.2914 133.597 85.4213 131.95 85.4213C115.322 85.4213 101.845 71.9444 101.845 55.3168C101.845 47.4499 104.577 35.6396 109.518 30.2764C115.019 24.3043 123.189 25.2111 131.95 25.2111C133.597 25.2111 135.209 25.3423 136.782 25.6008C151.111 27.9078 162.056 40.3348 162.056 55.3168Z" fill="#BF8E75"/>
<path d="M140.651 77.1174V87.7953C140.651 91.7045 138.074 95.0087 134.523 96.1058C133.711 96.3577 132.845 96.4942 131.949 96.4942C127.144 96.4942 123.25 92.5994 123.25 87.7953V77.1174H140.651Z" fill="#BF8E75"/>
<path d="M140.652 87.1182V87.7953C140.652 91.7045 138.075 95.0088 134.524 96.1058C131.32 95.1216 128.913 92.3357 128.468 88.9278C129.049 88.9632 129.633 88.9816 130.221 88.9816C131.866 88.9816 133.48 88.8503 135.053 88.5931C136.989 88.2808 138.861 87.7835 140.652 87.1182Z" fill="#D3A489"/>
<path d="M162.056 55.317C162.056 70.2977 151.111 82.726 136.782 85.033C122.453 82.726 111.509 70.2977 111.509 55.317C111.509 46.0918 115.658 37.8351 122.194 32.3118C126.27 28.8658 131.277 26.4867 136.782 25.5996C150.14 27.7504 160.561 38.7012 161.907 52.3145C162.006 53.3026 162.056 54.3052 162.056 55.317Z" fill="#D3A489"/>
<path d="M43.5003 81C41.4604 81 39.4212 80.57 37.5619 79.71C37.0378 79.468 36.8458 78.914 37.1342 78.4724C37.4226 78.0315 38.0812 77.8706 38.6062 78.1126C41.6702 79.53 45.3296 79.53 48.3944 78.1126C48.9186 77.8706 49.5772 78.0315 49.8657 78.4724C50.1541 78.914 49.9629 79.468 49.4379 79.71C47.5794 80.57 45.5395 81 43.5003 81Z" fill="#EAB599"/>
<path d="M141.863 110.096H154.987V114.113H141.863V110.096Z" fill="white"/>
<path d="M130.189 16.6118C139.31 17.2627 146.632 24.6297 147.095 33.9034L147.182 35.6448H152.428L155.253 54.4337L162.097 52.3157L161.178 33.9047C160.693 24.1625 152.635 16.5278 142.885 16.5646L130.189 16.6118Z" fill="#2A2F4F"/>
<path d="M160.598 9.34448C167.86 16.6065 167.86 28.3814 160.598 35.6434C153.336 42.9054 141.561 42.9054 134.299 35.6434L160.598 9.34448Z" fill="#3D4159"/>
<path d="M134.299 35.6436H111.476L108.65 54.4338L101.806 52.3158L102.723 33.9035C103.209 24.164 111.266 16.5266 121.018 16.5634L153.98 16.688L158.338 24.5314" fill="#3D4159"/>
<path d="M133.712 16.6118C124.592 17.2627 117.27 24.6297 116.806 33.9034L116.72 35.6448H111.475L108.648 54.4337L101.805 52.3157L102.723 33.9047C103.209 24.1625 111.266 16.5278 121.016 16.5646L133.712 16.6118Z" fill="#2A2F4F"/>
<path d="M122.453 157.468V163.917C111.386 169.101 99.0333 172 85.9999 172C72.9666 172 60.6104 169.101 49.5428 163.913V157.468C49.5428 144.743 58.1814 134.04 69.9156 130.903C70.3447 130.787 70.7765 130.681 71.2148 130.587C72.38 130.333 73.5768 130.159 74.792 130.06C75.536 130 76.284 129.969 77.0425 129.969H94.9508C96.9547 129.969 98.9034 130.18 100.785 130.587C100.894 130.608 101.003 130.633 101.108 130.657C101.424 130.731 101.739 130.808 102.051 130.892C102.063 130.895 102.066 130.895 102.076 130.899C105.173 131.727 108.055 133.082 110.614 134.862C117.771 139.826 122.453 148.099 122.453 157.468Z" fill="#3D4159"/>
<path d="M102.143 130.586L102.076 130.899L93.3054 171.692C92.8513 171.73 92.396 171.765 91.9393 171.797C91.2963 171.839 90.6507 171.877 90.0011 171.905C88.6744 171.968 87.3412 172 86 172C84.6235 172 83.2587 171.968 81.9005 171.901C81.2864 171.874 80.671 171.839 80.0568 171.793C79.5975 171.761 79.1409 171.73 78.6842 171.692L69.9157 130.903L69.8501 130.586H102.143Z" fill="#98E0E4"/>
<path d="M85.9959 141.226L73.6148 148.106L69.8486 130.589L77.5411 126.058" fill="#75BFCA"/>
<path d="M85.9961 141.226L98.3759 148.106L102.142 130.589L94.4496 126.058" fill="#75BFCA"/>
<path d="M102.611 154.228H106.538L99.6792 170.915C96.5062 171.424 93.2767 171.757 90.0013 171.905L102.052 130.892L102.144 130.586L110.614 133.353L102.611 154.228Z" fill="#2A2F4F"/>
<path d="M81.9003 171.901C78.621 171.751 75.3889 171.411 72.2159 170.898L65.3633 154.228H69.2909L61.2848 133.353L69.758 130.586L69.8499 130.892L81.9003 171.901Z" fill="#2A2F4F"/>
<path d="M95.809 119.376V131.416C95.809 135.825 92.9024 139.551 88.8987 140.788C87.9814 141.073 87.0051 141.226 85.9947 141.226C80.5764 141.226 76.1855 136.834 76.1855 131.416V119.376H95.809Z" fill="#EAB599"/>
<path d="M95.809 130.653V131.417C95.809 135.825 92.9023 139.55 88.8987 140.789C85.286 139.678 82.5696 136.537 82.0684 132.694C82.7245 132.735 83.3832 132.754 84.0446 132.754C85.9015 132.754 87.7216 132.607 89.4931 132.317C91.678 131.966 93.7881 131.403 95.809 130.653Z" fill="#F6CAAE"/>
<path d="M59.083 99.6423C59.083 104.184 55.7643 107.95 51.4195 108.65C50.9444 108.726 50.4563 108.766 49.9589 108.766C44.9185 108.766 40.8335 104.683 40.8335 99.6423C40.8335 94.6019 44.9172 90.5168 49.9589 90.5168C50.4563 90.5168 50.9444 90.5575 51.4195 90.6349C55.7643 91.3344 59.083 95.1006 59.083 99.6423Z" fill="#F6CAAE"/>
<path d="M59.0826 99.6421C59.0826 104.184 55.7639 107.95 51.419 108.649C50.6303 105.78 50.2091 102.759 50.2091 99.6421C50.2091 96.5242 50.6303 93.5047 51.419 90.6348C55.7639 91.3342 59.0826 95.1004 59.0826 99.6421Z" fill="#EAB599"/>
<path d="M53.22 99.6423C53.22 101.443 51.7595 102.903 49.9591 102.903C48.1573 102.903 46.6981 101.443 46.6981 99.6423C46.6981 97.8406 48.1573 96.3813 49.9591 96.3813C51.7595 96.3813 53.22 97.8406 53.22 99.6423Z" fill="#EAB599"/>
<path d="M112.91 99.6423C112.91 104.184 116.229 107.95 120.574 108.65C121.048 108.726 121.537 108.766 122.034 108.766C127.075 108.766 131.16 104.683 131.16 99.6423C131.16 94.6019 127.076 90.5168 122.034 90.5168C121.537 90.5168 121.048 90.5575 120.574 90.6349C116.229 91.3344 112.91 95.1006 112.91 99.6423Z" fill="#F6CAAE"/>
<path d="M112.91 99.6421C112.91 104.184 116.229 107.95 120.574 108.649C121.363 105.78 121.784 102.759 121.784 99.6421C121.784 96.5242 121.363 93.5047 120.574 90.6348C116.229 91.3342 112.91 95.1004 112.91 99.6421Z" fill="#EAB599"/>
<path d="M119.945 81.8664V94.7934C119.945 111.687 107.604 125.701 91.4446 128.302C91.3908 128.311 91.333 128.32 91.2792 128.329C89.5602 128.605 87.7965 128.74 85.9961 128.74C67.2479 128.74 52.0507 113.542 52.0507 94.7947V81.8664C52.0507 77.9191 52.7238 74.1254 53.9679 70.6006C58.6106 57.3889 71.1991 47.917 85.9961 47.917H85.9987C87.7965 47.917 89.5628 48.0561 91.2845 48.3277C107.522 50.8643 119.945 64.916 119.945 81.8664Z" fill="#EAB599"/>
<path d="M125.295 99.6423C125.295 101.443 123.836 102.903 122.034 102.903C120.234 102.903 118.773 101.443 118.773 99.6423C118.773 97.8406 120.234 96.3813 122.034 96.3813C123.836 96.3813 125.295 97.8406 125.295 99.6423Z" fill="#EAB599"/>
<path d="M119.944 81.8663V94.7933C119.944 111.686 107.604 125.701 91.4448 128.302C91.3897 128.311 91.3332 128.32 91.2781 128.329C75.0416 125.791 62.6211 111.741 62.6211 94.7933V81.8663C62.6211 64.9159 75.0442 50.8642 91.2847 48.3276C107.523 50.8642 119.944 64.9159 119.944 81.8663Z" fill="#F6CAAE"/>
<path d="M90.5004 119C87.8328 119 85.1662 118.427 82.7348 117.28C82.0494 116.957 81.7983 116.219 82.1755 115.63C82.5526 115.042 83.4139 114.828 84.1004 115.15C88.1072 117.04 92.8926 117.04 96.9004 115.15C97.5859 114.828 98.4472 115.042 98.8243 115.63C99.2015 116.219 98.9515 116.957 98.2649 117.28C95.8346 118.427 93.167 119 90.5004 119Z" fill="#EAB599"/>
<path d="M119.945 70.1347V83.3767H113.627V73.006L68.0182 64.5314L58.3678 62.7375V83.3767H52.0493V70.1334C52.0493 55.0372 64.2848 42.8018 79.3784 42.8018H92.6164C92.976 42.8018 93.3355 42.8083 93.6951 42.8267C108.286 43.3883 119.945 55.3981 119.945 70.1347Z" fill="#2A2F4F"/>
<path d="M119.946 70.1347V83.3767H113.627V73.0059L68.0184 64.5314C70.5314 52.4612 81.0032 43.3161 93.6953 42.8267C108.286 43.3883 119.946 55.3981 119.946 70.1347Z" fill="#3D4159"/>
<path d="M137.5 79C134.833 79 132.166 78.4266 129.735 77.2799C129.049 76.9574 128.798 76.2186 129.175 75.6298C129.553 75.042 130.414 74.8275 131.1 75.1501C135.107 77.0401 139.893 77.0401 143.9 75.1501C144.586 74.8275 145.447 75.042 145.824 75.6298C146.201 76.2186 145.951 76.9574 145.265 77.2799C142.835 78.4266 140.167 79 137.5 79Z" fill="#BF8E75"/>
</g>
<defs>
<clipPath id="clip0">
<rect width="172" height="172" fill="white"/>
</clipPath>
</defs>
</svg>
