<svg width="56" height="56" viewBox="0 0 56 56" fill="none" xmlns="http://www.w3.org/2000/svg">
<path d="M39.9653 17.1313C37.359 9.67404 29.5027 4.66675 20.4167 4.66675C9.1583 4.66675 0 12.516 0 22.1667C0.0947187 27.5135 2.77966 32.4815 7.2007 35.49L4.79041 40.3107C4.49673 40.8843 4.72358 41.5873 5.29714 41.8809C5.6537 42.0635 6.07906 42.0504 6.4237 41.846L12.5977 38.3157C14.2727 38.9074 16.0099 39.305 17.7754 39.501C18.4155 39.5748 18.9942 39.1157 19.068 38.4757C19.0834 38.3419 19.0755 38.2065 19.0448 38.0754C18.8015 37.0682 18.6747 36.0364 18.6668 35.0002C18.6668 25.9959 27.5638 18.6669 38.5001 18.6669L38.8431 18.6832C39.2223 18.6794 39.5785 18.5013 39.8091 18.2002C40.0328 17.8908 40.0912 17.4917 39.9653 17.1313Z" fill="#4CAF50"/>
<path d="M12.833 11.6667C10.9 11.6667 9.33301 13.2338 9.33301 15.1667C9.33301 17.0997 10.9 18.6667 12.833 18.6667C14.766 18.6667 16.333 17.0997 16.333 15.1667C16.333 13.2338 14.766 11.6667 12.833 11.6667Z" fill="#FAFAFA"/>
<path d="M26.833 11.6667C24.9 11.6667 23.333 13.2338 23.333 15.1667C23.333 17.0997 24.9 18.6667 26.833 18.6667C28.766 18.6667 30.333 17.0997 30.333 15.1667C30.333 13.2338 28.766 11.6667 26.833 11.6667Z" fill="#FAFAFA"/>
<path d="M56 35C56 27.279 48.1507 21 38.5 21C28.8493 21 21 27.279 21 35C21 42.721 28.8493 49 38.5 49C40.3104 48.9993 42.1135 48.7704 43.8667 48.3187L49.651 51.2097C50.2272 51.4981 50.9281 51.2649 51.2165 50.6888C51.3659 50.3904 51.3803 50.0423 51.2563 49.7327L49.672 45.766C53.4585 43.4707 55.8365 39.4248 56 35Z" fill="#4CAF50"/>
<path d="M32.6663 28C31.3776 28 30.333 29.0446 30.333 30.3333C30.333 31.622 31.3776 32.6666 32.6663 32.6666C33.955 32.6666 34.9996 31.622 34.9996 30.3333C34.9996 29.0446 33.955 28 32.6663 28Z" fill="#FAFAFA"/>
<path d="M44.3333 28C43.0446 28 42 29.0446 42 30.3333C42 31.622 43.0446 32.6666 44.3333 32.6666C45.622 32.6666 46.6666 31.622 46.6666 30.3333C46.6667 29.0446 45.622 28 44.3333 28Z" fill="#FAFAFA"/>
</svg>
