<svg width="56" height="56" viewBox="0 0 56 56" fill="none" xmlns="http://www.w3.org/2000/svg">
<g clip-path="url(#clip0)">
<path d="M55.9463 19.0656C56.1867 22.1339 55.6593 25.8112 53.599 25.9932C50.2343 26.2896 51.989 22.6449 52.0333 20.4516C52.157 14.0932 46.6387 9.67624 41.2323 9.67624C39.7017 9.67624 36.1433 10.6982 36.6917 7.52024C36.939 6.12024 38.1453 6.13891 39.3517 5.98024C48.4447 4.79024 55.307 10.9386 55.9463 19.0656Z" fill="#FF9800"/>
<path d="M41.0765 26.4531C44.9848 28.5554 49.6795 29.6031 48.9025 35.8424C48.7158 37.3381 47.7965 39.3354 46.8678 40.6117C40.2622 49.7071 20.3355 53.5291 7.89415 46.6177C3.72215 44.2984 -0.596845 40.9057 0.0681545 34.1484C0.642155 28.3314 4.61815 23.8257 8.52182 19.9874C12.2458 16.3241 16.1705 13.4587 21.5115 12.1381C27.3075 10.7054 29.0202 15.4561 27.4592 20.1414C30.8168 19.9197 37.9312 16.2354 41.0765 19.8334C42.4625 21.4201 41.9328 24.2597 41.0765 26.4531ZM36.8508 41.2301C38.1038 39.8347 39.3615 37.7067 39.3545 35.2287C39.3382 27.5801 29.5382 24.7521 21.8265 25.3774C17.6078 25.7181 14.7705 26.5931 11.8095 28.3034C9.39215 29.6987 6.56415 31.9691 5.86182 35.3827C4.27982 43.0617 12.7708 46.6714 19.0078 47.0821C26.2132 47.5557 33.4255 45.0544 36.8508 41.2301Z" fill="#F44336"/>
<path d="M48.2747 19.0657C48.6037 21.4084 47.9201 23.4407 46.5527 23.5294C44.2731 23.6787 45.1247 21.994 44.9871 19.9897C44.9007 18.7554 43.8601 17.3297 42.9524 16.9097C41.1721 16.0884 38.4141 17.507 38.4141 15.064C38.4141 13.2487 40.0147 13.4377 40.9201 13.37C44.8821 13.0737 47.8127 15.7594 48.2747 19.0657Z" fill="#FF9800"/>
<path d="M29.9643 34.4586C33.2987 44.3706 15.9247 48.9789 12.7467 40.4622C10.621 34.7666 15.7263 30.2352 21.0417 29.6869C25.58 29.2179 28.9633 31.4952 29.9643 34.4586ZM21.9797 36.1526C22.6867 37.3566 24.313 36.4909 24.1707 35.5366C24.0003 34.4329 21.9657 34.5962 21.9797 36.1526ZM19.1633 41.3862C22.0847 40.7026 22.4767 35.2916 18.0667 36.3066C14.3637 37.1559 15.08 42.3406 19.1633 41.3862Z" fill="#212121"/>
</g>
<defs>
<clipPath id="clip0">
<rect width="56" height="56" fill="white"/>
</clipPath>
</defs>
</svg>
