<svg width="64" height="64" viewBox="0 0 64 64" fill="none" xmlns="http://www.w3.org/2000/svg">
<path d="M64 32C64 49.6733 49.6733 64 32 64C14.3267 64 0 49.6733 0 32C0 14.3267 14.3267 0 32 0C49.6733 0 64 14.3267 64 32Z" fill="#98E0E4"/>
<path d="M64 32C64 29.2104 63.6421 26.5044 62.9717 23.9248L51.2964 12.25L12.9678 50.5786L25.7842 63.3945C27.7949 63.7905 29.873 64 32 64C49.6733 64 64 49.6733 64 32Z" fill="#75BFCA"/>
<path d="M14.4678 13.75H49.7964V49.0786H14.4678V13.75Z" fill="#DAF2F5"/>
<path d="M31.9761 13.75H49.7964V49.0786H31.9761V13.75Z" fill="#BFE9EF"/>
<path d="M35.8599 21.6724L39.3184 18.2144L40.5557 19.4517L37.0977 22.9102L35.8599 21.6724Z" fill="#E06B89"/>
<path d="M41.0684 26.8809L44.5264 23.4229L45.7642 24.6602L42.3057 28.1182L41.0684 26.8809Z" fill="#E06B89"/>
<path d="M35.7563 26.9429L44.5884 18.1108L45.8262 19.3481L36.9937 28.1802L35.7563 26.9429Z" fill="#E06B89"/>
<path d="M51.2964 50.5786H12.9678V12.25H51.2964V50.5786ZM15.9678 47.5786H48.2964V15.25H15.9678V47.5786Z" fill="white"/>
<path d="M51.2964 12.25H31.9761V15.25H48.2964V47.5786H31.9761V50.5786H51.2964V12.25Z" fill="#ECF7F8"/>
<path d="M30.5 14.875H33.5V49.0786H30.5V14.875Z" fill="white"/>
<path d="M31.9761 14.875H33.5V49.0786H31.9761V14.875Z" fill="#ECF7F8"/>
<path d="M15.625 30.625H49V33.625H15.625V30.625Z" fill="white"/>
<path d="M31.9761 30.625H49V33.625H31.9761V30.625Z" fill="#ECF7F8"/>
<path d="M16.1519 39C15.2222 39 14.4678 38.2461 14.4678 37.3159V27.375H17.8359V37.3159C17.8359 38.2461 17.082 39 16.1519 39Z" fill="#C62D54"/>
</svg>
