<svg width="64" height="64" viewBox="0 0 64 64" fill="none" xmlns="http://www.w3.org/2000/svg">
<path d="M32 64C49.6731 64 64 49.6731 64 32C64 14.3269 49.6731 0 32 0C14.3269 0 0 14.3269 0 32C0 49.6731 14.3269 64 32 64Z" fill="#EFA2B6"/>
<path d="M63.7852 35.6632L45.9892 17.8672L18.7812 46.0762L36.3972 63.6922C50.7943 61.7122 62.1322 50.1612 63.7852 35.6632Z" fill="#E06B89"/>
<path d="M44.2971 46.4413C43.6571 46.4413 43.0181 46.1973 42.5291 45.7093L18.3011 21.4803C17.3241 20.5033 17.3241 18.9213 18.3011 17.9453C19.2781 16.9693 20.8601 16.9683 21.8361 17.9453L46.0651 42.1743C47.0421 43.1513 47.0421 44.7333 46.0651 45.7093C45.5761 46.1973 44.9371 46.4413 44.2971 46.4413Z" fill="white"/>
<path d="M20.0681 46.4416C19.4281 46.4416 18.7891 46.1976 18.3001 45.7096C17.3231 44.7326 17.3231 43.1506 18.3001 42.1746L42.5291 17.9456C43.5061 16.9686 45.0881 16.9686 46.0641 17.9456C47.0401 18.9226 47.0411 20.5046 46.0641 21.4806L21.8361 45.7096C21.3481 46.1976 20.7081 46.4416 20.0681 46.4416Z" fill="white"/>
</svg>
