<svg width="36" height="24" viewBox="0 0 36 24" fill="none" xmlns="http://www.w3.org/2000/svg">
<path d="M33.3039 0.000976562H2.69613C1.20705 0.000976562 0 1.2292 0 2.7444V21.2575C0 22.7726 1.20705 24.0009 2.69613 24.0009H33.3039C34.7929 24.0009 36 22.7727 36 21.2575V2.7444C36 1.2292 34.7929 0.000976562 33.3039 0.000976562Z" fill="#41479B"/>
<path d="M35.9627 2.28996C35.7502 0.990764 34.641 0 33.3039 0H32.6024L21.1035 7.66591V7.15064e-05H14.8965V7.66598L3.39764 7.15064e-05H2.69613C1.359 7.15064e-05 0.24982 0.990764 0.0373359 2.29003L9.86548 8.84219H0V15.158H9.86548L0.0373359 21.71C0.24982 23.0092 1.359 23.9999 2.69613 23.9999H3.39764L14.8965 16.334V23.9999H21.1035V16.334L32.6024 23.9999H33.3039C34.641 23.9999 35.7502 23.0092 35.9627 21.71L26.1345 15.1578H36V8.84204H26.1345L35.9627 2.28996Z" fill="#F5F5F5"/>
<path d="M19.8621 0.000976562H16.1379V10.1062H0V13.8957H16.1379V24.0008H19.8621V13.8957H36V10.1062H19.8621V0.000976562Z" fill="#FF4B55"/>
<path d="M1.74332 23.8229L14.8624 15.1577H12.5823L0.648621 23.04C0.940628 23.3868 1.31589 23.6586 1.74332 23.8229Z" fill="#FF4B55"/>
<path d="M24.3556 15.1577H22.0755L34.7821 23.5504C35.1377 23.3128 35.4344 22.9918 35.646 22.6149L24.3556 15.1577Z" fill="#FF4B55"/>
<path d="M0.28479 1.51689L11.3752 8.84223H13.6553L1.08818 0.541504C0.750751 0.797065 0.474634 1.13118 0.28479 1.51689Z" fill="#FF4B55"/>
<path d="M23.3835 8.8423L35.3391 0.945443C35.0438 0.599806 34.6656 0.329649 34.2352 0.168457L21.1034 8.8423H23.3835Z" fill="#FF4B55"/>
</svg>
