<svg width="36" height="24" viewBox="0 0 36 24" fill="none" xmlns="http://www.w3.org/2000/svg">
<path d="M33.3039 0H2.69613C1.20705 0 0 1.22822 0 2.74342V21.2566C0 22.7717 1.20705 24 2.69613 24H33.3039C34.7929 24 36 22.7718 36 21.2566V2.74342C36 1.22822 34.7929 0 33.3039 0Z" fill="#FF4B55"/>
<path d="M5.97685 3.75319L6.5686 5.55857L8.43891 5.57331C8.68107 5.57517 8.78148 5.88968 8.58664 6.03599L7.08209 7.16649L7.64621 8.98103C7.7192 9.21598 7.45637 9.41023 7.25935 9.267L5.73779 8.16026L4.21623 9.26693C4.01921 9.41023 3.75639 9.21584 3.82937 8.98096L4.39349 7.16642L2.88894 6.03599C2.69411 5.88961 2.79451 5.57517 3.03667 5.57331L4.90698 5.55857L5.49873 3.75319C5.57537 3.51945 5.90028 3.51945 5.97685 3.75319Z" fill="#FFE15A"/>
<path d="M12.7684 4.19811L13.1928 4.78679L13.8775 4.56886C13.9662 4.54067 14.0391 4.64356 13.9848 4.72018L13.5656 5.31265L13.9809 5.90798C14.0347 5.98504 13.9611 6.08742 13.8726 6.05859L13.1893 5.83601L12.7611 6.4219C12.7057 6.49774 12.5872 6.4581 12.5869 6.36366L12.5837 5.63353L11.9038 5.40023C11.8158 5.36996 11.8162 5.24318 11.9044 5.21356L12.5858 4.9849L12.5938 4.25485C12.5948 4.16062 12.7135 4.12192 12.7684 4.19811Z" fill="#FFE15A"/>
<path d="M10.1858 2.44317L10.8991 2.52202L11.2034 1.86086C11.2429 1.7753 11.3667 1.78996 11.3856 1.88247L11.5323 2.59707L12.2443 2.68722C12.3364 2.69888 12.361 2.82323 12.2803 2.87023L11.6577 3.23297L11.7935 3.94985C11.8111 4.04272 11.7024 4.10482 11.6336 4.04136L11.1021 3.55092L10.4741 3.90378C10.3928 3.9495 10.301 3.8635 10.3391 3.77729L10.6332 3.11134L10.1093 2.61252C10.0416 2.54828 10.0935 2.43302 10.1858 2.44317Z" fill="#FFE15A"/>
<path d="M11.3134 9.51845L10.8891 10.1073L10.2044 9.88934C10.1157 9.86115 10.0428 9.96397 10.0971 10.0407L10.5163 10.6331L10.101 11.2285C10.0472 11.3055 10.1208 11.4079 10.2093 11.3791L10.8926 11.1565L11.3207 11.7424C11.3761 11.8182 11.4946 11.7786 11.495 11.6841L11.4981 10.954L12.178 10.7207C12.2661 10.6904 12.2656 10.5637 12.1774 10.534L11.4961 10.3054L11.4881 9.57533C11.4869 9.48096 11.3683 9.44218 11.3134 9.51845Z" fill="#FFE15A"/>
<path d="M13.8961 7.86944L13.1828 7.94829L12.8785 7.28713C12.839 7.20157 12.7153 7.21623 12.6963 7.30874L12.5495 8.02334L11.8376 8.11348C11.7454 8.12515 11.7208 8.24949 11.8015 8.2965L12.4241 8.65923L12.2883 9.37612C12.2708 9.46898 12.3794 9.53109 12.4482 9.46762L12.9797 8.97718L13.6078 9.33004C13.689 9.37576 13.7808 9.28976 13.7427 9.20355L13.4486 8.53761L13.9725 8.03879C14.0405 7.97454 13.9886 7.85928 13.8961 7.86944Z" fill="#FFE15A"/>
</svg>
